<?xml version="1.0" standalone="no"?>
<!DOCTYPE svg PUBLIC "-//W3C//DTD SVG 20010904//EN"
 "http://www.w3.org/TR/2001/REC-SVG-20010904/DTD/svg10.dtd">
<svg version="1.0" xmlns="http://www.w3.org/2000/svg"
 width="429.000000pt" height="189.000000pt" viewBox="0 0 429.000000 189.000000"
 preserveAspectRatio="xMidYMid meet">

<g transform="translate(0.000000,189.000000) scale(0.100000,-0.100000)"
fill="#000000" stroke="none">
<path d="M245 1776 c-54 -20 -120 -95 -142 -159 -15 -46 -18 -111 -21 -547 -2
-334 0 -521 8 -575 14 -95 48 -177 85 -201 107 -70 349 182 414 430 25 95 31
346 9 346 -7 0 -45 -12 -85 -26 l-71 -26 -4 -152 c-4 -172 -12 -199 -78 -242
-47 -31 -74 -26 -89 18 -7 20 -11 179 -11 463 l0 432 23 34 c24 36 56 48 102
39 42 -8 55 -40 55 -142 0 -49 4 -88 10 -88 8 0 73 12 138 26 21 4 22 9 22
102 -1 139 -34 208 -125 255 -52 27 -182 34 -240 13z"/>
<path d="M720 1205 c0 -316 2 -575 4 -575 2 0 43 21 90 46 l86 46 0 529 0 529
-90 0 -90 0 0 -575z"/>
<path d="M1030 1280 l0 -500 38 16 c20 9 56 23 79 31 l43 15 2 341 3 342 76
-215 c42 -118 89 -254 105 -302 19 -61 33 -88 44 -88 8 1 49 9 90 19 l75 18 3
411 2 412 -80 0 -80 0 -1 -237 c0 -176 -3 -231 -11 -213 -5 14 -45 120 -88
235 l-78 210 -111 3 -111 3 0 -501z"/>
<path d="M1720 1379 l0 -401 28 6 c79 15 132 20 287 25 l170 6 0 60 0 60 -153
0 -152 0 0 118 0 117 120 0 120 0 0 55 0 55 -120 0 -120 0 0 100 0 99 153 3
152 3 0 45 0 45 -242 3 -243 2 0 -401z"/>
<path d="M2310 1396 l0 -383 46 -7 c26 -3 62 -6 80 -6 l34 0 2 288 3 287 33
-85 c53 -133 118 -315 152 -428 28 -91 34 -103 58 -108 15 -3 52 -12 83 -20
31 -8 62 -14 68 -14 8 0 11 123 11 430 l0 430 -80 0 -80 0 0 -220 c0 -121 -3
-220 -8 -220 -4 0 -18 30 -31 68 -12 37 -50 136 -83 220 l-61 152 -113 0 -114
0 0 -384z"/>
<path d="M3002 1329 l3 -451 100 -37 c128 -48 210 -83 308 -132 l77 -39 0 95
0 96 -47 21 c-27 12 -95 38 -153 59 l-105 37 -3 146 c-2 96 1 146 8 146 11 0
184 -37 213 -46 15 -5 17 3 17 70 0 86 8 79 -115 96 -139 20 -125 4 -125 142
l0 120 123 -7 c67 -3 137 -8 155 -11 l32 -5 0 76 0 75 -245 0 -245 0 2 -451z"/>
<path d="M3576 1763 c4 -10 47 -135 95 -277 l87 -259 -33 -91 c-47 -130 -165
-484 -165 -495 0 -7 91 -68 156 -104 7 -4 19 24 33 76 28 106 113 401 118 406
7 9 12 -9 46 -164 43 -192 72 -341 88 -452 l12 -83 76 -67 c127 -112 115 -107
106 -38 -20 174 -83 501 -146 769 l-40 168 32 107 c17 58 55 185 84 281 29 96
56 187 59 203 l6 27 -84 0 -84 0 -20 -72 c-47 -165 -106 -348 -113 -348 -4 0
-11 15 -14 33 -10 44 -111 373 -120 386 -3 7 -43 11 -97 11 -82 0 -89 -2 -82
-17z"/>
</g>
</svg>
