<?xml version="1.0" standalone="no"?>
<!DOCTYPE svg PUBLIC "-//W3C//DTD SVG 20010904//EN"
 "http://www.w3.org/TR/2001/REC-SVG-20010904/DTD/svg10.dtd">
<svg version="1.0" xmlns="http://www.w3.org/2000/svg"
 width="500.000000pt" height="500.000000pt" viewBox="0 0 500.000000 500.000000"
 preserveAspectRatio="xMidYMid meet">

<g transform="translate(0.000000,500.000000) scale(0.100000,-0.100000)"
fill="#000000" stroke="none">
<path d="M286 3465 c-87 -31 -145 -104 -170 -214 -23 -99 -24 -1208 -2 -1324
32 -166 98 -225 202 -182 47 19 142 100 204 172 63 73 143 233 170 338 25 95
40 377 22 389 -6 4 -51 -7 -100 -24 l-89 -31 -6 -166 c-5 -157 -6 -168 -34
-221 -22 -42 -39 -61 -75 -81 -37 -21 -51 -24 -65 -15 -38 24 -41 72 -42 576
-1 423 1 493 15 527 19 49 51 71 103 71 76 0 100 -47 101 -197 0 -40 3 -73 8
-73 36 0 177 32 184 42 11 18 10 99 -2 183 -17 117 -83 200 -182 230 -64 19
-190 19 -242 0z"/>
<path d="M2133 3472 l-133 -3 0 -459 0 -460 53 0 c28 0 72 5 97 11 25 6 128
14 230 18 l185 6 3 74 3 74 -181 -5 -180 -5 0 133 c0 157 -16 143 165 147
l120 2 3 58 3 57 -146 0 -145 0 0 115 0 115 138 1 c75 1 155 2 177 3 l40 1 0
60 0 60 -150 0 c-82 0 -210 -1 -282 -3z"/>
<path d="M840 2801 l0 -669 103 53 102 54 3 616 2 615 -105 0 -105 0 0 -669z"/>
<path d="M1200 2890 l0 -580 38 16 c20 9 61 25 90 36 l52 21 0 388 c0 213 4
390 8 393 5 3 60 -144 122 -327 62 -183 117 -342 121 -353 8 -24 -2 -26 216
32 10 2 12 80 8 346 -3 189 -5 402 -5 475 l0 133 -90 0 -90 0 0 -260 c0 -143
-3 -260 -7 -260 -7 0 -53 117 -178 455 l-23 60 -131 3 -131 3 0 -581z"/>
<path d="M2690 3026 l0 -445 58 -6 c31 -3 74 -8 94 -10 l38 -5 2 332 3 333 23
-50 c13 -27 32 -77 43 -110 11 -33 24 -69 30 -79 6 -11 44 -119 84 -240 l73
-221 67 -22 c37 -12 87 -25 111 -29 l44 -6 0 501 0 501 -100 0 -100 0 0 -247
-1 -248 -24 50 c-14 28 -34 77 -45 109 -11 33 -46 121 -77 198 l-57 138 -133
0 -133 0 0 -444z"/>
<path d="M3500 2947 l0 -523 68 -24 c112 -38 281 -109 384 -161 54 -27 102
-49 108 -49 6 0 10 40 10 105 l0 104 -32 17 c-18 10 -98 41 -178 70 l-145 52
-3 172 -2 172 42 -7 c24 -4 85 -18 135 -30 51 -12 95 -20 98 -17 9 9 6 160 -4
166 -4 3 -53 12 -107 21 -55 8 -114 17 -131 20 l-33 6 0 140 0 141 153 -7 c83
-4 163 -8 177 -9 25 -1 25 0 25 79 l0 80 -282 3 -283 2 0 -523z"/>
<path d="M4168 3465 c-3 -3 10 -45 29 -93 18 -48 67 -189 108 -314 l74 -227
-25 -73 c-66 -186 -204 -603 -204 -613 0 -6 19 -22 43 -35 23 -13 64 -38 92
-57 27 -18 53 -29 56 -25 4 4 19 50 32 102 13 52 46 167 72 255 26 88 50 170
53 183 12 59 28 6 96 -318 28 -133 86 -451 86 -473 0 -7 211 -190 215 -186 17
18 -132 802 -201 1056 l-25 92 66 218 c37 120 84 276 106 347 21 70 39 135 39
142 0 11 -21 14 -94 14 l-93 0 -23 -72 c-12 -40 -44 -145 -72 -233 -27 -88
-52 -166 -54 -174 -9 -27 -21 4 -67 164 -25 88 -59 196 -74 240 l-28 80 -101
3 c-55 1 -103 0 -106 -3z"/>
</g>
</svg>
