<?xml version="1.0" standalone="no"?>
<!DOCTYPE svg PUBLIC "-//W3C//DTD SVG 20010904//EN"
 "http://www.w3.org/TR/2001/REC-SVG-20010904/DTD/svg10.dtd">
<svg version="1.0" xmlns="http://www.w3.org/2000/svg"
 width="5472.000000pt" height="5472.000000pt" viewBox="0 0 5472.000000 5472.000000"
 preserveAspectRatio="xMidYMid meet">

<g transform="translate(0.000000,5472.000000) scale(0.100000,-0.100000)"
fill="#000000" stroke="none">
<path d="M0 27360 l0 -27360 27360 0 27360 0 0 27360 0 27360 -27360 0 -27360
0 0 -27360z m26843 -6164 c33 -21 62 -47 68 -63 5 -14 27 -47 48 -72 21 -25
43 -56 50 -68 12 -24 40 -30 58 -12 10 10 83 -17 83 -32 0 -8 84 -59 98 -59
14 0 64 104 71 147 7 44 56 83 103 83 45 0 127 -46 134 -76 6 -23 10 -25 43
-20 25 4 49 -1 81 -17 24 -12 44 -25 43 -29 -1 -4 5 -24 13 -43 8 -20 12 -40
9 -45 -3 -5 -27 -19 -53 -30 -73 -33 -92 -55 -92 -110 l0 -47 41 -7 c22 -4 44
-4 48 -2 12 8 195 36 244 37 27 1 53 -4 68 -14 13 -10 38 -17 56 -17 17 0 35
-6 40 -12 8 -14 18 20 32 102 14 84 36 112 151 188 53 35 58 36 139 35 59 -2
95 -8 125 -22 22 -11 69 -23 103 -26 56 -5 63 -3 73 16 6 11 11 39 10 62 -3
62 -2 64 28 76 36 14 91 10 85 -7 -4 -8 0 -10 11 -6 9 3 16 2 16 -3 0 -6 18
-15 39 -22 22 -6 48 -21 58 -34 10 -12 23 -22 28 -22 6 0 35 -8 66 -18 78 -23
91 -52 94 -206 3 -159 -17 -283 -44 -267 -4 3 -17 -8 -30 -24 -13 -17 -28 -27
-37 -23 -8 3 -14 -1 -14 -11 0 -10 -8 -16 -21 -16 -18 0 -20 4 -14 29 6 28
-13 82 -33 95 -5 3 -19 -8 -30 -24 -18 -24 -20 -34 -11 -57 8 -20 7 -44 -3
-86 -12 -57 -13 -58 -29 -38 -17 21 -17 21 -38 -15 -12 -19 -21 -41 -21 -48 0
-6 -6 -18 -12 -25 -11 -11 -10 -13 2 -9 9 3 24 0 35 -8 18 -14 18 -14 -1 -14
-12 0 -15 -3 -7 -8 7 -4 -8 -21 -43 -46 l-54 -40 25 -26 c27 -28 32 -54 14
-66 -14 -8 73 -64 100 -64 11 0 22 6 24 13 3 6 4 -4 1 -23 -2 -19 -2 -29 2
-22 3 6 10 10 14 7 5 -3 16 5 25 19 15 23 15 28 -4 71 -11 26 -24 44 -28 42
-5 -3 -9 9 -10 25 -2 28 -1 29 11 13 12 -17 13 -16 19 12 8 42 92 123 127 123
16 0 49 9 74 20 25 10 46 15 46 10 0 -6 6 -10 13 -10 34 0 184 -95 193 -122 3
-10 14 -18 24 -18 10 0 22 -4 25 -10 3 -5 14 -10 23 -10 11 0 25 -17 37 -42
11 -23 25 -42 30 -42 27 -1 55 -41 55 -77 0 -21 4 -39 9 -41 5 -1 11 -34 12
-73 2 -50 7 -74 18 -82 15 -11 15 -12 0 -13 -10 0 -19 -16 -26 -47 -6 -27 -10
-49 -8 -51 2 -2 12 1 23 7 12 6 29 11 40 11 10 0 31 11 46 25 15 14 32 25 37
25 6 0 7 4 4 10 -9 14 40 34 62 25 10 -4 28 -9 41 -11 12 -1 29 -9 37 -17 8
-9 20 -17 27 -19 8 -3 9 -11 3 -24 -16 -38 -17 -84 -1 -100 15 -14 16 -11 18
33 l1 48 4 -44 c4 -41 15 -63 39 -72 6 -3 7 -19 1 -46 -6 -32 -13 -43 -26 -43
-13 0 -28 -18 -46 -55 -20 -42 -35 -59 -61 -70 -35 -14 -49 -55 -19 -55 17 0
20 -16 5 -25 -5 -3 -10 -26 -10 -50 0 -24 -3 -45 -7 -47 -5 -1 -17 -22 -29
-44 l-21 -41 24 0 c14 0 30 -6 36 -13 10 -10 6 -11 -19 -7 -43 8 -54 -20 -54
-138 0 -77 -3 -95 -15 -95 -18 0 -51 60 -37 69 12 8 24 129 12 136 -5 3 -11 1
-15 -5 -13 -22 -27 -7 -59 63 -18 39 -40 78 -49 85 -43 36 -80 -18 -98 -143
-6 -44 -14 -84 -19 -89 -18 -18 -43 47 -51 132 -10 107 -23 154 -53 189 -21
24 -27 26 -57 17 -76 -22 -104 -141 -153 -644 l-15 -155 5 186 c4 124 2 201
-6 229 -6 23 -13 40 -16 37 -9 -9 -23 -179 -34 -417 -9 -201 -30 -538 -45
-730 -2 -30 -6 -91 -9 -135 -8 -119 -15 -214 -26 -370 -6 -77 -13 -174 -15
-215 -3 -41 -8 -98 -10 -125 -2 -28 -9 -122 -15 -210 -5 -88 -12 -182 -15
-210 -2 -27 -7 -95 -10 -150 -3 -55 -12 -185 -20 -290 -8 -104 -17 -224 -19
-265 -17 -251 -28 -406 -41 -565 -7 -99 -16 -227 -20 -285 -3 -58 -8 -123 -10
-145 -3 -22 -14 -179 -25 -350 -11 -170 -25 -371 -30 -445 -8 -116 -25 -367
-45 -680 -3 -47 -12 -161 -20 -255 -20 -244 -33 -415 -40 -530 -4 -55 -8 -116
-10 -135 -1 -19 -6 -84 -9 -145 -4 -60 -11 -162 -16 -225 -5 -63 -12 -149 -15
-190 -2 -41 -12 -172 -20 -290 -9 -118 -20 -260 -25 -315 -5 -55 -12 -149 -15
-210 -9 -155 -33 -527 -45 -675 -21 -279 -40 -522 -51 -647 -6 -73 -8 -149 -5
-168 l7 -35 -48 0 c-26 0 -55 4 -62 9 -16 10 -19 -41 34 716 13 198 31 461 40
585 8 124 29 414 45 645 16 231 34 485 40 565 5 80 19 273 29 430 11 157 29
418 41 580 49 728 138 2031 155 2270 15 216 72 1052 100 1470 15 229 50 748
85 1260 11 157 29 422 40 590 11 168 25 355 30 417 6 61 7 118 4 126 -3 9 -34
29 -69 46 -65 31 -85 37 -85 24 0 -5 -7 -80 -15 -168 -9 -88 -31 -392 -50
-675 -19 -283 -39 -578 -45 -655 -5 -77 -14 -207 -20 -290 -5 -82 -19 -278
-30 -435 -11 -157 -24 -350 -30 -430 -6 -80 -21 -293 -35 -475 -13 -181 -36
-496 -50 -700 -37 -539 -82 -1170 -100 -1400 -8 -110 -33 -463 -55 -785 -22
-322 -56 -808 -75 -1080 -19 -272 -42 -596 -50 -720 -9 -124 -27 -376 -40
-560 -13 -184 -29 -409 -34 -500 -6 -91 -20 -304 -31 -475 -26 -406 -20 -375
-78 -377 -74 -2 -110 -1 -128 6 -16 6 -17 29 -10 259 6 218 29 785 66 1597 6
124 17 383 25 575 8 193 19 445 25 560 5 116 19 424 30 685 21 507 38 868 71
1555 12 237 22 444 23 460 0 17 22 71 48 120 96 188 132 334 131 540 -1 176
-23 280 -92 428 l-40 89 9 206 c45 968 100 2334 100 2465 0 63 -1 68 -17 56
-9 -8 -34 -39 -56 -69 -22 -30 -53 -67 -70 -82 l-31 -26 -8 -199 c-24 -606
-60 -1498 -73 -1772 -8 -172 -15 -324 -15 -337 0 -26 -12 -31 -32 -11 -76 72
-205 160 -315 215 -45 23 -85 47 -89 54 -5 7 -6 265 -4 573 3 308 5 830 5
1160 l0 600 -35 -2 c-44 -3 -119 -23 -125 -34 -3 -4 -8 -367 -10 -806 -7
-1116 -14 -1423 -30 -1423 -8 0 -60 11 -117 25 -57 14 -150 31 -207 39 -57 8
-106 18 -110 21 -3 4 -9 131 -13 283 -31 1274 -47 1723 -60 1740 -14 16 -131
82 -146 82 -15 0 -15 -143 -2 -535 12 -347 40 -1391 40 -1491 l0 -71 -187 -12
c-104 -7 -201 -14 -218 -14 -27 -2 -30 1 -36 38 -4 22 -12 141 -18 265 -11
202 -27 486 -76 1345 -9 149 -19 283 -23 299 l-7 29 -38 -56 c-20 -31 -56 -68
-78 -83 l-41 -26 6 -61 c3 -34 15 -217 26 -407 11 -190 22 -381 25 -425 4 -71
13 -223 44 -790 5 -88 8 -161 7 -162 -1 -1 -62 -18 -136 -37 -74 -19 -175 -49
-224 -65 -50 -17 -93 -28 -98 -23 -4 4 -28 230 -53 502 -96 1047 -163 1728
-170 1740 -7 11 -71 -7 -117 -33 -31 -17 -38 -26 -38 -52 0 -16 14 -168 30
-335 47 -481 165 -1754 172 -1859 l2 -44 -99 -51 c-55 -28 -140 -76 -188 -106
-62 -37 -91 -50 -96 -42 -4 7 -17 99 -30 204 -12 106 -35 301 -51 433 -16 132
-47 395 -70 585 -86 728 -141 1153 -150 1171 -11 19 -127 79 -154 79 -18 0
-19 4 9 -215 8 -60 37 -299 65 -530 27 -231 54 -456 60 -500 15 -121 65 -548
110 -940 22 -192 43 -365 45 -382 5 -30 1 -38 -52 -85 -90 -82 -193 -187 -253
-256 -29 -34 -57 -59 -62 -54 -4 4 -24 114 -43 243 -19 129 -73 495 -120 814
-129 875 -256 1709 -262 1718 -3 5 -13 -9 -23 -31 -20 -44 -53 -72 -88 -72
-12 0 -25 -6 -28 -13 -2 -7 27 -225 67 -483 39 -258 73 -485 76 -504 2 -19 47
-325 98 -680 161 -1103 175 -1200 175 -1228 0 -15 -15 -66 -34 -112 -163 -402
-107 -795 159 -1112 l64 -76 35 -253 c210 -1501 588 -4109 675 -4654 16 -99
25 -184 21 -188 -10 -11 -168 -13 -179 -2 -14 15 -115 525 -191 970 -17 99
-67 385 -111 635 -44 250 -109 622 -144 825 -138 795 -235 1354 -249 1435 -30
175 -169 977 -281 1630 -123 714 -389 2247 -475 2735 -28 160 -91 524 -141
810 -50 286 -92 522 -94 524 -2 2 -25 -4 -51 -13 -26 -9 -51 -16 -55 -16 -16
0 -20 78 -6 107 10 20 12 36 5 58 -5 17 -10 80 -11 140 -1 95 2 122 26 198 16
48 30 87 33 87 2 0 32 -14 65 -31 70 -35 80 -31 110 37 16 40 21 43 75 54 48
10 63 10 97 -4 22 -9 41 -15 41 -13 1 1 11 16 22 32 12 17 24 40 28 52 7 20
111 104 188 152 34 20 41 21 73 10 27 -10 38 -10 47 -1 7 7 32 12 56 12 39 0
49 -5 102 -56 35 -33 64 -71 71 -93 15 -43 17 -214 5 -328 -9 -81 -8 -83 13
-83 14 0 21 6 21 19 0 10 9 30 20 44 12 14 36 59 54 100 36 78 105 152 135
142 9 -2 27 4 40 14 l24 18 -32 46 c-17 25 -31 52 -31 59 0 8 14 33 30 55 33
44 85 69 123 59 33 -8 63 3 64 25 1 10 -2 19 -8 19 -13 0 -11 48 2 52 6 2 9
13 7 23 -4 18 -6 17 -16 -6 -16 -40 -50 -55 -142 -63 -47 -4 -105 -12 -129
-17 -36 -8 -47 -7 -62 7 -26 24 -35 75 -15 86 19 11 20 29 5 98 -7 32 -16 50
-25 50 -17 0 -64 94 -64 125 1 26 21 52 45 56 14 3 23 16 29 44 15 75 46 129
91 163 24 17 45 32 47 32 2 0 38 34 81 75 42 41 86 75 97 75 13 0 18 5 14 15
-3 8 8 35 24 61 17 25 33 51 35 57 2 8 43 15 108 19 57 3 118 9 135 13 26 6
42 1 88 -29 31 -20 61 -36 66 -36 5 0 24 -18 41 -40 18 -22 37 -40 43 -40 18
0 76 63 76 83 0 11 10 37 22 58 21 37 24 39 73 39 39 0 56 -5 70 -20 10 -11
26 -22 36 -25 10 -4 36 -41 58 -85 l39 -79 -15 -68 c-8 -37 -17 -77 -20 -89
-3 -12 2 -28 12 -38 17 -17 15 -34 -21 -153 -8 -27 7 -29 67 -11 33 9 42 9 57
-6 17 -15 22 -15 48 -1 16 8 48 15 72 15 37 0 42 3 42 23 0 13 -11 37 -25 53
-35 41 -33 92 6 161 l31 54 72 -1 c39 -1 90 2 112 5 46 7 41 -1 74 131 5 22
35 82 65 133 49 80 55 96 49 127 -5 30 -2 40 22 66 54 56 122 79 225 74 55 -3
74 -9 122 -40z m5843 -302 c-6 -32 -11 -38 -25 -30 -5 4 -8 20 -6 36 3 21 0
30 -10 30 -21 0 -19 18 3 22 23 5 44 -25 38 -58z m-492 50 c11 -4 14 -13 10
-30 -9 -35 31 -33 50 4 8 15 15 23 16 19 0 -5 -5 -17 -10 -28 -8 -15 -7 -19 4
-19 8 0 16 8 19 18 3 14 6 12 15 -9 13 -34 40 -44 62 -24 20 18 60 20 61 3 0
-7 4 -4 8 7 12 29 52 35 74 10 17 -20 17 -20 11 8 -4 17 -2 27 5 27 6 0 11 -7
11 -15 0 -8 5 -15 10 -15 6 0 10 12 10 28 l0 27 15 -29 c16 -30 8 -45 -22 -46
-21 0 -15 -16 7 -17 11 -1 20 2 20 8 0 13 16 11 32 -5 8 -7 24 -17 36 -20 12
-4 22 -12 22 -17 0 -19 16 -8 28 21 8 18 18 27 25 24 8 -5 8 -2 0 7 -15 16
-17 55 -3 64 6 3 10 -3 10 -14 0 -11 5 -23 10 -26 6 -3 10 0 10 7 0 10 3 9 10
-2 6 -9 5 -19 -2 -28 -9 -10 -8 -16 2 -22 8 -5 17 -7 19 -4 3 3 0 9 -7 13 -10
6 -10 11 3 21 12 10 15 10 15 -5 0 -15 3 -15 15 -5 13 11 18 10 30 -6 8 -10
17 -31 20 -46 7 -31 20 -36 29 -13 4 12 10 13 31 3 23 -10 24 -13 9 -29 -13
-14 -13 -20 -2 -38 11 -18 11 -23 -2 -31 -13 -8 -13 -10 2 -10 9 0 21 -7 26
-15 7 -14 11 -14 38 0 16 8 23 15 15 15 -10 0 -11 3 -2 14 7 8 13 27 14 43 2
21 8 29 25 31 20 3 22 0 20 -34 -2 -21 -9 -39 -16 -42 -9 -3 -10 3 -2 24 6 15
9 29 6 31 -2 2 -8 -9 -14 -25 -10 -29 0 -63 14 -49 4 4 14 1 23 -6 14 -10 14
-10 4 4 -7 9 -9 19 -5 23 4 4 7 17 7 29 0 16 6 21 20 19 34 -6 46 -47 14 -47
-7 0 -15 -9 -17 -20 -2 -15 -1 -17 6 -6 6 8 17 11 32 6 16 -5 19 -10 11 -18
-9 -9 -14 -8 -21 3 -5 8 -10 11 -10 5 0 -20 16 -34 35 -32 17 2 21 -5 23 -39
3 -37 6 -41 28 -41 13 0 24 4 24 9 0 5 4 7 9 3 6 -3 10 -13 10 -23 0 -9 3 -29
7 -45 5 -22 3 -26 -9 -21 -13 4 -15 1 -12 -16 6 -31 14 -37 25 -20 9 14 14 7
11 -12 0 -5 6 -8 14 -8 18 0 20 -20 3 -20 -8 0 -6 -5 4 -10 10 -6 14 -18 11
-29 -4 -15 -1 -19 14 -15 11 3 25 -2 32 -10 16 -19 1 -22 -17 -4 -8 8 -12 8
-12 1 0 -6 7 -14 16 -17 10 -4 13 -13 9 -25 -3 -11 -1 -22 5 -26 5 -3 10 -15
10 -25 0 -10 5 -22 11 -26 8 -4 9 0 4 15 -10 32 4 45 26 25 10 -9 19 -22 19
-27 0 -6 -9 -2 -20 8 -11 10 -20 13 -20 7 0 -6 5 -14 10 -17 6 -4 8 -11 4 -16
-3 -6 4 -13 16 -16 13 -3 19 -11 16 -19 -3 -8 1 -14 9 -14 14 0 19 -12 16 -32
0 -5 6 -8 15 -8 13 0 14 3 4 15 -6 8 -9 19 -5 25 4 6 1 19 -7 28 -12 15 -11
16 5 3 9 -7 17 -10 17 -6 0 4 7 2 16 -6 17 -14 63 -19 70 -8 2 4 -6 11 -18 15
-51 15 -61 56 -12 46 19 -3 23 -1 18 11 -3 8 0 18 7 23 7 4 10 3 6 -4 -9 -14
3 -43 14 -36 5 3 6 10 3 16 -5 8 -1 9 10 5 10 -4 21 -7 26 -7 4 0 11 -10 15
-22 4 -14 8 -18 11 -11 4 9 11 10 24 3 13 -7 21 -5 30 5 17 20 74 14 102 -11
12 -11 18 -13 14 -6 -4 7 -1 12 9 12 9 0 13 -4 10 -10 -4 -6 4 -9 17 -7 14 1
23 -4 24 -13 3 -39 5 -41 23 -35 11 3 25 -1 34 -9 8 -8 18 -12 22 -8 5 4 5 1
1 -6 -5 -7 -14 -11 -22 -8 -7 3 -16 1 -20 -5 -9 -14 15 -39 32 -32 8 3 14 -1
14 -10 0 -8 -9 -17 -20 -20 -11 -3 -20 0 -20 6 0 6 -2 8 -5 5 -9 -9 7 -39 19
-36 17 4 52 -35 48 -54 -2 -9 2 -19 7 -23 6 -3 11 1 11 9 0 9 4 16 9 16 5 0 8
-11 6 -25 -2 -19 1 -23 10 -15 8 7 21 2 42 -18 45 -41 55 -63 36 -84 -15 -17
-15 -20 2 -38 15 -17 16 -22 4 -36 -11 -14 -11 -18 -1 -21 6 -3 12 -13 12 -24
0 -17 -20 -25 -51 -21 -4 1 -5 -8 -2 -19 7 -25 -19 -22 -29 3 -4 9 -15 16 -26
15 -23 -1 -25 -27 -3 -27 10 0 12 -3 5 -8 -6 -4 -14 -14 -17 -22 -4 -12 -6
-11 -6 3 -1 22 -43 23 -61 2 -11 -13 -9 -15 13 -15 30 0 54 -25 40 -42 -16
-20 -12 -44 9 -57 17 -11 18 -10 9 7 -10 19 -6 32 11 32 5 0 7 -4 4 -9 -4 -5
-1 -11 5 -13 8 -3 3 -20 -14 -50 -26 -46 -26 -47 -6 -53 14 -5 19 -13 16 -26
-6 -22 3 -25 21 -7 10 10 15 10 22 -2 7 -11 4 -17 -7 -21 -12 -4 -13 -8 -5
-13 7 -4 16 -5 21 -1 5 3 13 0 17 -7 5 -8 10 -6 14 8 7 17 11 15 44 -19 20
-21 36 -32 36 -24 0 8 9 22 21 33 17 16 22 16 29 4 6 -8 10 -24 10 -35 1 -20
1 -20 12 -1 7 13 8 21 1 23 -10 4 -7 73 4 83 3 3 3 -7 1 -22 -4 -19 -1 -28 8
-28 7 0 15 -6 17 -12 3 -7 6 -3 6 9 1 12 8 26 18 31 14 9 14 10 -5 16 -12 4
-22 12 -22 17 0 14 27 11 44 -6 8 -8 19 -15 25 -15 7 0 7 -8 1 -25 -8 -22 -7
-27 15 -35 22 -8 24 -13 18 -42 -8 -36 -8 -57 -1 -106 6 -40 18 -54 18 -21 0
24 20 65 20 42 0 -6 7 -18 15 -27 17 -17 9 -50 -11 -42 -8 3 -11 0 -7 -10 6
-16 12 -17 32 -5 7 5 10 14 7 20 -4 6 -2 11 3 11 6 0 12 -6 13 -12 0 -7 2 -17
3 -23 2 -5 3 -14 4 -19 0 -6 7 -2 14 7 11 15 15 13 47 -16 20 -19 35 -42 34
-54 -1 -15 3 -20 14 -15 11 4 12 7 4 10 -17 5 -15 19 4 26 8 3 12 2 9 -4 -3
-6 -2 -10 4 -10 5 0 13 5 16 10 14 23 32 9 30 -25 0 -19 3 -35 7 -35 4 0 15
-13 24 -30 11 -17 28 -30 43 -33 l26 -3 -24 -10 -24 -10 26 -21 26 -20 -34
-36 c-36 -37 -44 -62 -22 -70 9 -4 9 -8 -3 -16 -8 -6 -14 -25 -13 -48 1 -26
-5 -46 -20 -63 -12 -13 -15 -19 -6 -12 13 10 19 9 30 -5 10 -12 11 -17 2 -20
-7 -2 -9 -11 -6 -19 3 -7 -2 -17 -11 -20 -9 -3 -16 -16 -16 -28 0 -16 2 -18 9
-7 13 20 45 6 36 -17 -12 -29 -11 -56 2 -70 19 -19 16 -36 -3 -18 -24 24 -27
20 -19 -30 5 -39 4 -46 -8 -41 -20 8 -29 -30 -14 -57 6 -12 11 -24 12 -28 0
-3 3 -10 7 -14 4 -4 5 -18 2 -30 -6 -22 -3 -24 27 -25 24 -1 27 -3 12 -6 -13
-2 -23 -11 -23 -19 0 -8 -6 -14 -12 -14 -10 0 -9 -3 1 -9 10 -7 8 -12 -10 -25
l-23 -16 29 0 c29 -1 29 -1 11 -15 -15 -11 -17 -18 -9 -26 16 -16 -5 -48 -27
-42 -10 3 -21 0 -24 -6 -4 -6 0 -11 8 -11 11 0 16 -9 16 -26 0 -21 -4 -25 -20
-21 -11 3 -18 0 -17 -7 1 -6 -4 -10 -10 -9 -7 2 -13 -4 -13 -12 0 -9 -10 -15
-26 -15 -20 0 -24 -4 -20 -17 3 -10 1 -25 -4 -33 -8 -12 -11 -12 -28 3 -10 9
-21 17 -25 17 -9 0 4 -33 16 -41 6 -4 6 -15 2 -25 -5 -13 -9 -15 -12 -6 -3 6
-10 12 -16 12 -8 0 -7 -4 1 -12 21 -21 14 -39 -13 -32 -22 5 -25 3 -25 -20 0
-15 6 -26 14 -26 7 0 16 -8 20 -17 3 -10 9 -25 12 -33 4 -12 4 -12 -4 -1 -6 8
-12 9 -16 3 -3 -6 9 -16 27 -22 24 -10 27 -14 15 -17 -10 -3 -18 -12 -18 -20
0 -9 -8 -22 -17 -29 -17 -13 -17 -15 0 -28 9 -7 17 -16 17 -20 0 -11 -35 -7
-48 6 -9 9 -12 9 -12 0 0 -7 5 -12 11 -12 5 0 7 -5 3 -11 -3 -6 -16 -8 -28 -5
-11 3 -28 1 -36 -4 -12 -8 -11 -11 8 -16 23 -7 31 -34 10 -34 -7 -1 -2 -7 12
-15 17 -10 20 -14 9 -15 -22 0 -32 -27 -13 -34 29 -11 14 -25 -16 -15 -16 6
-27 15 -24 20 3 5 0 9 -6 9 -7 0 -9 -7 -6 -16 4 -12 2 -15 -9 -10 -8 3 -15 1
-15 -4 0 -6 2 -10 4 -10 2 0 12 -3 22 -7 13 -5 15 -3 9 7 -5 8 -3 11 6 8 17
-5 26 -88 10 -88 -6 0 -11 14 -11 30 0 33 -26 43 -37 14 -3 -9 -15 -20 -27
-24 l-21 -9 21 0 c31 -1 39 -57 10 -66 -12 -4 -25 -6 -30 -6 -5 1 -5 -4 1 -11
17 -20 20 -90 6 -95 -7 -3 -13 2 -13 9 0 8 -6 22 -13 32 -10 14 -18 15 -40 7
-15 -6 -32 -22 -39 -35 -14 -33 -30 -23 -23 15 3 17 1 29 -5 29 -6 0 -9 -4 -6
-9 4 -5 0 -11 -6 -14 -19 -6 11 -59 31 -55 9 2 21 -3 27 -11 14 -18 48 -7 41
13 -4 10 0 12 14 9 16 -5 17 -8 7 -21 -12 -14 -10 -14 11 -3 15 8 21 9 17 2
-4 -6 -6 -11 -4 -11 42 -4 114 -13 117 -16 4 -4 -42 -5 -229 -8 -42 -1 -87 -8
-103 -16 -20 -10 -31 -10 -38 -3 -8 8 -18 8 -36 0 -18 -8 -32 -8 -54 0 -16 6
-29 7 -29 2 0 -5 -24 -6 -54 -3 -32 3 -57 1 -61 -6 -4 -6 8 -11 32 -11 44 -2
101 -5 228 -13 50 -3 94 -5 98 -6 5 0 5 -4 2 -10 -3 -5 -37 -10 -75 -10 -63 0
-68 -1 -63 -20 3 -12 0 -20 -7 -20 -6 0 -14 9 -17 20 -5 19 -13 20 -147 19
-88 -1 -128 -4 -106 -9 l35 -7 -35 -2 c-19 -1 -44 -7 -55 -12 l-20 -9 20 1
c42 2 55 -2 55 -17 0 -8 5 -12 10 -9 6 4 8 11 5 16 -9 13 9 11 23 -3 16 -16
105 -19 114 -5 4 7 11 7 21 -1 8 -7 52 -15 98 -18 47 -3 87 -11 91 -17 6 -9 8
-8 8 2 0 7 6 11 15 7 9 -3 15 0 15 9 0 18 12 19 28 3 7 -7 27 -13 44 -14 18
-1 37 -9 43 -18 7 -9 15 -13 18 -9 4 3 2 12 -4 19 -18 21 7 24 29 3 12 -11 22
-16 22 -11 0 12 58 13 66 1 4 -6 11 -6 19 1 10 8 20 8 37 -1 32 -18 108 -19
108 -2 0 15 16 17 25 3 4 -6 10 -8 15 -5 12 7 41 -6 34 -16 -3 -5 2 -6 11 -2
10 3 21 0 27 -8 7 -10 11 -11 14 -2 4 8 13 9 29 3 17 -7 25 -5 29 6 7 18 21
18 40 -2 9 -8 16 -12 16 -7 0 4 5 1 11 -7 8 -12 10 -9 6 13 -5 34 0 34 35 0
15 -15 28 -21 28 -15 0 21 26 13 38 -10 l11 -23 0 23 c1 26 13 28 31 7 7 -9
19 -14 26 -11 7 3 16 1 19 -4 4 -6 20 -10 36 -10 17 0 39 -4 49 -10 10 -5 40
-10 67 -11 26 -1 54 -7 62 -13 11 -8 13 -8 7 2 -10 16 18 16 52 -2 15 -7 37
-12 49 -10 12 2 25 -1 28 -6 3 -5 12 -7 19 -4 8 3 17 1 20 -5 4 -6 13 -8 21
-5 8 3 31 0 52 -7 21 -7 41 -12 46 -11 4 1 7 -2 7 -6 0 -4 15 -6 33 -4 22 2
38 -2 52 -16 15 -14 24 -16 36 -9 12 7 21 5 37 -11 12 -12 28 -18 39 -16 24 7
99 -57 107 -92 7 -27 -9 -58 -25 -48 -5 3 -9 0 -9 -6 0 -6 -11 -15 -25 -22
-19 -8 -28 -8 -42 3 -17 13 -17 13 0 -7 22 -26 22 -28 -6 -58 -25 -26 -91 -37
-132 -20 -18 7 -19 6 -5 -11 14 -17 13 -18 -16 -12 -36 7 -49 0 -34 -18 7 -9
3 -17 -15 -29 -14 -9 -30 -14 -36 -11 -5 4 -16 1 -24 -5 -8 -7 -24 -10 -36 -7
-19 5 -20 4 -5 -12 24 -27 19 -41 -15 -41 -18 0 -28 4 -24 10 4 6 16 8 28 5
17 -5 19 -4 7 4 -8 6 -29 11 -47 11 -17 0 -35 5 -38 10 -4 7 -24 8 -51 4 -30
-4 -44 -3 -44 5 0 6 -5 11 -11 11 -5 0 -7 -5 -4 -10 7 -11 -5 -17 -53 -24 -36
-5 -55 -15 -31 -17 50 -4 79 -3 79 4 0 4 9 7 21 7 12 0 17 -4 14 -11 -4 -6 -1
-10 6 -8 37 5 72 -2 63 -11 -13 -13 -92 -28 -187 -37 -37 -3 -70 -10 -73 -14
-3 -5 -30 -9 -60 -9 -34 0 -61 -5 -69 -14 -9 -9 -36 -13 -83 -12 -54 2 -69 -1
-65 -11 3 -8 -3 -13 -15 -13 -11 0 -22 -4 -24 -9 -1 -4 -31 -5 -64 -1 -88 11
-175 2 -324 -34 -36 -9 -98 -18 -139 -21 -41 -3 -81 -9 -89 -14 -8 -5 -31 -5
-50 0 -20 4 -39 6 -43 4 -3 -3 -94 -7 -200 -10 -197 -6 -275 -19 -307 -51 -8
-9 -23 -13 -33 -11 -13 3 -19 0 -19 -10 0 -14 -3 -14 -20 2 -11 10 -17 21 -15
26 3 4 0 11 -6 15 -8 4 -9 3 -5 -4 12 -19 -8 -14 -32 8 -12 11 -28 20 -37 20
-9 0 -32 12 -51 26 -19 15 -34 21 -34 15 0 -6 -9 -11 -20 -11 -11 0 -20 -4
-20 -10 0 -5 -4 -10 -10 -10 -5 0 -10 6 -10 13 0 7 -6 22 -14 33 -14 18 -15
18 -25 -8 -9 -25 -33 -41 -30 -20 3 19 -2 33 -11 27 -5 -3 -10 2 -10 12 0 10
-9 26 -20 36 -11 9 -20 26 -20 37 0 28 -26 76 -45 83 -8 4 -15 2 -15 -3 0 -20
-19 -9 -22 12 -2 13 -11 24 -23 26 -16 3 -18 1 -7 -9 6 -7 12 -17 12 -21 0
-15 -22 -8 -39 14 l-18 22 -24 -22 c-27 -26 -40 -24 -56 9 -10 18 -13 20 -13
7 0 -11 -8 -18 -18 -18 -10 0 -24 -6 -30 -12 -10 -10 -15 -10 -21 1 -5 7 -14
10 -20 6 -7 -4 -20 -1 -29 7 -15 12 -16 11 -4 -4 14 -17 9 -38 -9 -38 -5 0 -9
6 -9 14 0 22 -41 28 -57 8 -13 -16 -14 -16 -25 0 -11 15 -13 15 -25 0 -8 -11
-15 -13 -20 -6 -5 5 -23 16 -41 23 -25 11 -35 11 -47 1 -12 -10 -20 -8 -41 9
-18 14 -34 19 -50 15 -16 -4 -24 -2 -24 6 0 9 -4 10 -13 2 -14 -12 -74 -11
-93 0 -7 5 -10 -1 -6 -17 4 -24 -11 -35 -23 -15 -3 5 -12 7 -20 3 -8 -3 -15 0
-15 6 0 6 -4 11 -10 11 -5 0 -10 -7 -10 -15 0 -17 -35 -21 -45 -5 -5 8 -11 7
-21 -1 -7 -6 -21 -9 -29 -5 -11 4 -15 -1 -15 -19 0 -27 -9 -32 -27 -14 -9 9
-16 8 -28 -5 -19 -18 -45 -21 -45 -5 0 8 -5 7 -16 -2 -20 -16 -69 -21 -101 -8
-16 6 -22 6 -18 -1 3 -6 -3 -10 -14 -10 -12 0 -21 -6 -21 -13 0 -16 -70 -14
-80 2 -7 13 -40 4 -40 -10 0 -18 -32 -8 -37 11 -4 13 -9 17 -17 12 -6 -5 -22
-8 -36 -7 -14 1 -37 -1 -52 -6 -17 -4 -33 -2 -46 7 -11 7 -22 10 -26 6 -4 -3
-11 -1 -15 6 -4 7 -28 15 -52 17 -24 2 -62 7 -84 11 -22 4 -43 7 -47 6 -5 -1
-8 4 -8 12 0 10 -11 12 -47 8 -39 -4 -45 -3 -40 10 5 13 -1 15 -33 11 -30 -4
-46 0 -71 18 -19 13 -46 22 -65 22 -18 -1 -38 5 -45 13 -6 8 -18 14 -25 14
-19 0 -122 66 -161 103 -54 51 -44 78 49 124 29 14 55 29 58 32 5 6 105 35
160 47 67 15 190 57 190 65 0 9 -36 14 -78 10 -13 -1 -22 2 -19 6 3 5 -14 8
-38 8 -24 0 -54 3 -67 6 -25 7 -23 9 52 29 73 20 77 23 40 29 -32 6 -34 7 -15
19 17 10 15 11 -20 7 -106 -12 -143 -18 -175 -32 -19 -8 -46 -17 -60 -19 -27
-4 -83 -19 -140 -36 -19 -6 -42 -16 -50 -23 -22 -18 -70 -25 -70 -10 0 7 -7
18 -15 25 -12 10 -15 10 -15 -1 -1 -9 -4 -8 -11 4 -7 13 -5 64 10 180 11 89
25 225 31 302 5 77 14 169 20 205 10 67 21 154 40 325 6 55 15 129 20 165 20
146 31 237 32 268 1 17 4 32 9 32 9 0 19 98 25 270 6 158 -5 217 -42 226 -35
9 -48 -7 -78 -94 -43 -124 -47 -132 -66 -132 -23 0 -30 27 -30 120 -1 131 -33
220 -79 220 -23 0 -73 -95 -97 -183 -16 -57 -36 -79 -55 -60 -6 6 -11 59 -12
119 -2 94 -6 116 -27 159 -14 27 -30 51 -37 53 -19 5 -64 -52 -95 -121 -15
-34 -28 -66 -28 -72 0 -5 -9 -21 -20 -35 -17 -22 -21 -23 -33 -10 -8 8 -25 49
-37 90 -12 41 -31 91 -41 112 -10 20 -16 39 -11 41 14 9 62 4 62 -5 0 -6 6 -6
14 1 11 9 19 5 41 -21 23 -28 26 -30 22 -10 -3 14 1 25 11 31 15 9 15 12 -6
33 -12 14 -22 29 -22 34 0 6 -11 17 -25 24 -13 7 -23 16 -20 19 2 4 -11 13
-28 21 -32 15 -32 15 -7 18 14 2 29 8 34 12 5 5 -1 6 -13 3 -19 -5 -20 -3 -12
18 5 13 14 23 20 21 18 -4 12 25 -6 32 -10 4 -14 4 -11 0 4 -4 3 -15 -3 -26
-9 -16 -17 -19 -44 -14 -36 7 -53 -11 -32 -34 9 -9 8 -11 -7 -8 -47 8 -13 63
37 60 29 -2 34 2 45 31 7 18 12 47 12 63 0 17 4 34 9 39 5 6 11 26 13 45 3 30
0 35 -19 38 -22 3 -33 22 -13 22 6 0 10 12 10 26 0 14 4 22 10 19 24 -15 52
-13 70 5 13 13 26 17 37 13 16 -7 16 -8 1 -11 -17 -3 -33 -31 -23 -40 3 -3 5
-1 5 5 0 6 11 8 25 5 17 -3 27 1 31 12 6 16 8 16 25 0 11 -9 19 -24 20 -33 0
-10 2 -12 6 -3 2 6 8 12 13 12 13 0 20 -43 8 -57 -14 -18 2 -36 25 -27 12 4
14 11 6 31 -12 32 -12 53 1 53 6 0 10 -13 10 -29 0 -18 6 -31 16 -35 13 -5 14
-4 6 7 -7 8 -10 16 -7 18 2 3 5 23 7 44 1 25 10 46 22 56 18 15 32 64 15 53
-5 -3 -11 8 -15 23 -3 15 -13 34 -22 41 -11 8 -12 12 -3 12 15 0 42 26 35 33
-10 10 7 47 22 47 8 0 14 7 14 15 0 8 6 15 13 15 9 0 9 2 -1 9 -10 6 -8 10 10
15 17 6 19 9 8 13 -8 3 -18 11 -22 17 -6 8 -11 6 -19 -4 -9 -13 -10 -12 -5 3
3 10 0 17 -7 18 -9 0 -8 2 1 6 10 4 10 8 1 19 -9 11 -9 14 1 14 7 0 10 8 7 20
-3 13 -1 18 6 13 6 -4 8 0 5 9 -4 8 2 20 14 27 11 7 17 15 14 18 -3 3 -12 0
-21 -7 -18 -15 -20 1 -2 19 10 10 8 11 -7 5 -14 -5 -17 -3 -14 7 3 8 10 13 17
12 15 -4 28 50 13 55 -7 2 -12 10 -12 18 0 9 5 12 13 8 6 -4 4 1 -5 12 -14 16
-15 23 -5 34 7 8 8 11 1 7 -20 -11 -27 26 -8 40 10 7 13 13 6 13 -20 0 -2 26
26 38 25 10 24 10 -13 6 -36 -5 -38 -4 -22 9 14 11 15 16 5 21 -10 5 -10 7 -1
12 9 4 10 11 3 25 -8 14 -7 19 3 19 18 0 16 48 -3 60 -8 5 -11 10 -6 10 5 0 3
7 -4 15 -7 8 -10 15 -7 15 3 0 13 3 23 7 14 5 16 3 11 -12 -10 -24 12 -52 26
-33 6 9 7 8 3 -4 -8 -28 3 -49 21 -39 9 5 24 6 34 4 11 -3 19 -1 19 4 0 6 12
10 26 9 15 0 30 6 35 14 12 24 23 54 24 68 0 7 13 23 29 37 24 21 26 26 12 31
-19 7 -22 34 -3 34 17 0 37 66 23 80 -6 6 -6 10 -1 10 6 0 3 4 -5 10 -28 18 2
24 32 7 25 -14 33 -15 39 -5 7 10 11 10 21 0 9 -9 9 -12 -2 -12 -11 -1 -10 -5
4 -15 22 -16 51 -12 79 13 11 9 17 11 17 4 0 -7 7 -12 15 -12 8 0 15 4 15 10
0 5 11 12 24 16 14 3 27 12 30 21 3 8 10 11 16 8 6 -4 8 -11 5 -16 -4 -5 5 -4
19 2 14 7 23 16 19 22 -3 6 -2 7 3 4 6 -3 16 -2 24 4 13 7 13 9 0 9 -13 0 -13
1 0 10 11 8 7 9 -15 5 -26 -6 -28 -4 -14 7 8 7 19 22 23 33 8 19 9 19 16 -5 6
-21 8 -23 15 -8 4 10 12 15 17 12 6 -4 15 0 20 7 7 10 8 5 6 -17 -3 -26 -1
-30 14 -26 10 2 18 9 18 14 0 5 -4 6 -10 3 -5 -3 -10 -2 -10 3 0 5 11 15 25
22 22 12 28 11 49 -9 l24 -22 7 28 c4 17 9 22 12 14 3 -7 14 -22 24 -32 11
-11 19 -28 19 -39 0 -11 6 -20 14 -20 7 0 16 -9 19 -20 4 -16 1 -19 -16 -16
-12 2 -16 1 -9 -1 6 -3 12 -8 12 -12 0 -5 11 -6 24 -4 19 4 25 0 28 -18 5 -35
27 -35 34 0 4 17 12 31 18 32 6 0 26 2 45 5 28 3 32 1 27 -12 -6 -15 -4 -15
10 -3 10 8 19 10 21 4 11 -32 21 -39 37 -26 9 8 16 23 16 34 0 16 3 18 11 10
9 -9 20 -6 44 13 24 18 34 21 37 12 3 -7 18 -13 34 -13 18 0 28 -5 26 -13 -2
-10 2 -10 18 0 11 7 20 16 20 21 0 4 8 4 18 0 21 -11 43 -10 61 1 8 5 17 3 22
-5 8 -12 10 -12 18 0 11 17 34 4 27 -15 -3 -7 -1 -16 4 -19 6 -4 10 1 10 9 0
24 25 19 40 -8 15 -29 41 -37 80 -26 16 5 32 5 35 0 3 -5 -5 -11 -17 -13 l-23
-4 23 -2 c16 -1 26 6 29 19 3 11 9 20 14 20 16 0 24 -5 22 -12 -2 -5 2 -8 7
-8 16 0 12 13 -15 44 -26 30 -32 41 -16 32 4 -3 16 3 26 14 10 11 24 20 32 20
7 0 13 7 13 15 0 8 5 15 10 15 6 0 10 -10 10 -22 0 -17 3 -19 12 -10 8 8 8 15
-1 26 -16 20 -4 39 20 33 11 -3 19 -2 20 1 5 52 11 77 20 83 17 10 -8 49 -31
49 -11 0 -20 5 -20 11 0 6 9 8 21 4 15 -5 19 -4 15 4 -8 12 4 14 28 5z m166
-49 c0 -8 -4 -15 -10 -15 -5 0 -10 7 -10 15 0 8 5 15 10 15 6 0 10 -7 10 -15z
m280 5 c0 -5 -7 -10 -16 -10 -8 0 -12 5 -9 10 3 6 10 10 16 10 5 0 9 -4 9 -10z
m-525 -20 c-3 -5 -12 -10 -18 -10 -7 0 -6 4 3 10 19 12 23 12 15 0z m835 -20
c0 -5 -4 -10 -10 -10 -5 0 -10 5 -10 10 0 6 5 10 10 10 6 0 10 -4 10 -10z
m-795 -20 c3 -5 1 -10 -4 -10 -6 0 -11 5 -11 10 0 6 2 10 4 10 3 0 8 -4 11
-10z m-1240 -101 c11 -17 0 -20 -21 -4 -17 13 -17 14 -2 15 9 0 20 -5 23 -11z
m338 -19 c7 0 6 -4 -3 -10 -11 -7 -19 -5 -27 7 -18 24 -16 37 3 19 8 -9 21
-16 27 -16z m702 10 c3 -5 1 -10 -4 -10 -6 0 -11 5 -11 10 0 6 2 10 4 10 3 0
8 -4 11 -10z m-622 -17 c-33 -6 -47 -28 -28 -43 13 -10 15 -9 15 11 0 19 2 21
10 9 5 -8 10 -18 10 -21 0 -14 -30 -17 -53 -6 l-24 11 26 23 c14 12 35 22 46
21 18 -1 18 -1 -2 -5z m185 -14 c-2 -6 -8 -10 -13 -10 -5 0 -11 4 -13 10 -2 6
4 11 13 11 9 0 15 -5 13 -11z m-876 -21 c-7 -7 -12 -8 -12 -2 0 14 12 26 19
19 2 -3 -1 -11 -7 -17z m109 -40 c11 -8 10 -9 -3 -5 -9 3 -19 1 -21 -6 -2 -7
-4 1 -4 17 0 17 3 23 7 16 4 -7 14 -17 21 -22z m1219 4 c0 -4 -11 -9 -26 -10
-14 -1 -23 2 -19 8 7 12 45 14 45 2z m-1430 -148 c0 -8 -3 -14 -7 -14 -5 0
-18 -3 -31 -6 -19 -6 -23 -3 -20 12 2 11 7 22 12 25 13 10 46 -2 46 -17z m38
15 c-2 -6 -8 -10 -13 -10 -5 0 -11 4 -13 10 -2 6 4 11 13 11 9 0 15 -5 13 -11z
m-280 -93 c-10 -7 -18 -26 -18 -42 -1 -21 -3 -25 -9 -14 -14 25 -24 63 -15 58
5 -3 18 -2 29 3 29 11 32 10 13 -5z m167 -21 c0 -16 -6 -30 -14 -33 -10 -3
-12 2 -7 22 4 16 2 26 -4 26 -6 0 -8 -4 -5 -10 3 -5 2 -10 -4 -10 -19 0 -21
19 -4 29 26 15 38 8 38 -24z m-185 -535 c0 -5 -4 -10 -10 -10 -5 0 -10 5 -10
10 0 6 5 10 10 10 6 0 10 -4 10 -10z m-283 -322 c-3 -8 -6 -5 -6 6 -1 11 2 17
5 13 3 -3 4 -12 1 -19z m273 -5 c0 -12 -3 -13 -13 -4 -8 6 -17 8 -21 4 -4 -4
-4 0 -1 9 8 20 35 12 35 -9z m-50 -23 c0 -5 -4 -10 -10 -10 -5 0 -10 5 -10 10
0 6 5 10 10 10 6 0 10 -4 10 -10z m3990 -42 c0 -16 -3 -19 -11 -11 -6 6 -8 16
-5 22 11 17 16 13 16 -11z m-4232 -83 c9 -20 9 -25 -2 -25 -13 0 -26 20 -26
41 0 18 17 8 28 -16z m4442 -94 c0 -6 -9 -11 -21 -11 -15 0 -19 4 -15 16 3 9
6 20 6 26 0 5 7 3 15 -6 8 -8 15 -19 15 -25z m-4475 -101 c-3 -5 -11 -10 -16
-10 -6 0 -7 5 -4 10 3 6 11 10 16 10 6 0 7 -4 4 -10z m-6515 -135 c27 -14 30
-20 30 -68 0 -44 83 -547 225 -1367 95 -548 187 -1085 365 -2125 38 -220 100
-582 139 -805 38 -223 106 -619 150 -880 179 -1059 613 -3558 720 -4150 17
-90 28 -167 25 -170 -3 -3 -48 -5 -100 -6 -94 -1 -94 -1 -100 25 -3 14 -10 40
-14 56 -13 46 -45 215 -91 475 -22 129 -50 285 -60 345 -11 61 -53 308 -94
550 -41 242 -95 555 -119 695 -25 140 -83 478 -130 750 -47 272 -94 542 -105
600 -11 58 -43 238 -70 400 -72 426 -99 579 -126 720 -13 69 -69 388 -124 710
-56 322 -115 662 -131 755 -17 94 -53 303 -81 465 -27 162 -56 329 -64 370 -8
41 -28 154 -45 250 -78 467 -100 595 -119 696 -11 60 -43 242 -70 404 -99 586
-122 718 -153 884 -28 157 -30 176 -19 249 13 93 44 154 86 173 38 17 40 17
75 -1z m11270 -5 c0 -5 -9 -10 -19 -10 -11 0 -23 5 -26 10 -4 6 5 10 19 10 14
0 26 -4 26 -10z m10 -210 c0 -5 -4 -10 -10 -10 -5 0 -10 5 -10 10 0 6 5 10 10
10 6 0 10 -4 10 -10z m0 -320 c0 -5 -5 -10 -11 -10 -5 0 -7 5 -4 10 3 6 8 10
11 10 2 0 4 -4 4 -10z m-5580 -158 c-9 -14 -10 -11 -6 17 3 18 7 54 8 80 2 38
2 35 5 -17 2 -35 -1 -70 -7 -80z m5530 8 c0 -5 -4 -10 -10 -10 -5 0 -10 5 -10
10 0 6 5 10 10 10 6 0 10 -4 10 -10z m-15 -442 c6 -6 -8 -8 -37 -7 -31 2 -48
7 -48 15 0 14 68 8 85 -8z m-75 -59 c0 -6 -4 -7 -10 -4 -5 3 -10 11 -10 16 0
6 5 7 10 4 6 -3 10 -11 10 -16z m-230 -602 c0 -5 -4 -5 -10 -2 -5 3 -10 14
-10 23 0 15 2 15 10 2 5 -8 10 -19 10 -23z m-210 -157 c0 -5 -12 -10 -26 -10
-14 0 -23 4 -19 10 3 6 15 10 26 10 10 0 19 -4 19 -10z m245 -10 c3 -6 -1 -7
-9 -4 -18 7 -21 14 -7 14 6 0 13 -4 16 -10z m-150 -20 c18 -19 41 -18 29 2 -4
6 1 6 14 -1 11 -6 34 -11 51 -11 16 0 33 -5 36 -10 5 -8 11 -8 20 0 14 11 45
4 45 -11 0 -11 -191 -11 -207 0 -6 3 -15 16 -22 29 -15 29 8 31 34 2z m328
-30 c18 0 19 -2 7 -10 -41 -27 -90 -2 -90 45 0 14 6 12 31 -9 17 -14 40 -26
52 -26z m-93 10 c0 -5 -4 -10 -10 -10 -5 0 -10 5 -10 10 0 6 5 10 10 10 6 0
10 -4 10 -10z m181 -22 c9 -17 8 -19 -13 -16 -15 2 -24 11 -26 25 -3 18 0 21
13 17 8 -4 20 -15 26 -26z m82 -15 c-7 -2 -19 -2 -25 0 -7 3 -2 5 12 5 14 0
19 -2 13 -5z m297 -29 c0 -12 -4 -12 -20 -4 -11 6 -18 15 -15 20 8 13 35 0 35
-16z m-330 -5 c0 -5 -4 -9 -10 -9 -5 0 -10 7 -10 16 0 8 5 12 10 9 6 -3 10
-10 10 -16z m447 -5 c-3 -3 -12 -4 -19 -1 -8 3 -5 6 6 6 11 1 17 -2 13 -5z
m-8166 -14 c690 -53 1165 -362 1291 -840 31 -120 31 -308 0 -435 -27 -107 -82
-247 -99 -253 -15 -4 -11 -16 -129 317 -51 145 -95 266 -97 267 -5 6 -211 -57
-221 -67 -5 -5 1 -47 17 -104 14 -52 22 -97 18 -99 -3 -3 -101 8 -216 24 -115
16 -212 27 -214 24 -8 -8 228 -711 242 -722 17 -14 227 58 227 77 0 8 -10 41
-22 73 -12 34 -17 62 -12 67 12 12 275 -35 285 -50 11 -18 -54 -102 -181 -230
-180 -181 -343 -300 -592 -429 -272 -141 -558 -233 -883 -285 -159 -26 -502
-31 -665 -10 -622 78 -1057 388 -1174 835 -24 90 -31 249 -17 351 16 110 60
238 121 359 52 100 165 270 179 270 10 0 3 19 103 -250 43 -118 101 -273 128
-345 26 -71 53 -131 58 -133 11 -3 239 93 255 108 5 4 2 21 -7 38 -22 43 -21
49 16 68 61 31 144 121 174 187 37 83 40 196 5 274 -30 68 -101 134 -177 163
-85 33 -228 38 -351 12 -70 -14 -93 -16 -93 -7 0 7 35 46 78 86 279 265 694
478 1146 589 265 64 556 90 807 70z m8149 -20 c0 -5 -5 -10 -11 -10 -5 0 -7 5
-4 10 3 6 8 10 11 10 2 0 4 -4 4 -10z m150 -20 c0 -5 -4 -10 -10 -10 -5 0 -10
5 -10 10 0 6 5 10 10 10 6 0 10 -4 10 -10z m-4213 -26 c-3 -3 -12 -4 -19 -1
-8 3 -5 6 6 6 11 1 17 -2 13 -5z m4373 -4 c18 -12 2 -12 -25 0 -13 6 -15 9 -5
9 8 0 22 -4 30 -9z m144 -31 c-3 -5 -10 -7 -15 -3 -5 3 -7 10 -3 15 3 5 10 7
15 3 5 -3 7 -10 3 -15z m-5058 -107 c-11 -10 -14 3 -7 38 l6 35 3 -33 c2 -19
1 -36 -2 -40z m224 -41 c0 -5 -8 -12 -18 -15 -36 -12 -46 -48 -29 -102 38
-122 32 -136 -44 -107 -29 11 -55 26 -58 34 -3 10 3 9 22 -4 15 -10 27 -14 27
-10 0 5 -21 19 -47 33 -26 14 -55 36 -65 50 -21 29 -15 60 11 60 9 0 27 7 40
16 20 14 52 25 108 37 7 2 16 6 19 10 11 10 34 9 34 -2z m5320 -95 c0 -34 -5
-45 -32 -66 -17 -14 -37 -31 -44 -37 -7 -7 -17 -13 -23 -13 -6 0 -11 -4 -11
-10 0 -5 -7 -10 -15 -10 -8 0 -15 -4 -15 -10 0 -5 -3 -9 -7 -8 -11 3 -84 -22
-108 -36 -11 -7 -28 -15 -37 -19 -22 -8 -14 17 19 56 13 16 23 33 23 38 0 5 6
9 14 9 19 0 118 53 162 86 27 21 34 32 30 50 -4 13 -1 24 7 27 22 8 37 -15 37
-57z m-70 20 c0 -20 -12 -31 -71 -60 -73 -36 -99 -44 -99 -27 0 24 14 41 35
41 13 0 26 4 30 9 3 5 19 12 35 16 17 4 30 13 30 20 0 7 8 16 18 18 9 3 18 5
20 6 1 0 2 -10 2 -23z m-5784 -71 c24 -18 7 -19 -26 0 -16 9 -19 14 -9 15 8 0
24 -7 35 -15z m369 -35 c3 -5 2 -10 -4 -10 -5 0 -13 5 -16 10 -3 6 -2 10 4 10
5 0 13 -4 16 -10z m-115 -61 c0 -6 -4 -7 -10 -4 -5 3 -10 11 -10 16 0 6 5 7
10 4 6 -3 10 -11 10 -16z m250 -119 c0 -5 -4 -10 -10 -10 -5 0 -10 5 -10 10 0
6 5 10 10 10 6 0 10 -4 10 -10z m67 -16 c-3 -3 -12 -4 -19 -1 -8 3 -5 6 6 6
11 1 17 -2 13 -5z m4573 -4 c0 -5 -7 -10 -15 -10 -8 0 -15 5 -15 10 0 6 7 10
15 10 8 0 15 -4 15 -10z m140 -30 c19 -10 17 -48 -4 -62 -19 -13 5 -22 25 -10
11 7 24 10 29 7 18 -11 10 -32 -22 -65 -22 -21 -29 -34 -20 -37 6 -3 12 -11
12 -18 0 -7 8 -12 17 -11 14 1 17 -6 15 -30 -3 -26 0 -31 20 -30 18 1 23 -4
23 -24 0 -14 -5 -24 -12 -23 -21 4 -27 -45 -9 -66 27 -30 20 -44 -14 -26 -17
9 -34 13 -39 10 -5 -2 -24 1 -42 9 -43 18 -198 55 -258 61 -76 9 -99 15 -105
31 -3 8 0 14 6 14 6 0 3 9 -8 21 -10 11 -20 16 -22 10 -2 -7 -10 -8 -22 -1
-10 5 -25 8 -32 5 -7 -3 -31 9 -52 27 -21 17 -47 33 -56 33 -25 2 -73 42 -60
50 5 3 18 -2 28 -11 16 -16 17 -16 20 -1 5 24 22 21 22 -3 0 -11 5 -20 11 -20
6 0 8 9 4 20 -5 17 -2 20 20 20 15 0 24 4 20 10 -3 6 3 10 14 10 12 0 21 -6
22 -12 0 -7 5 -3 11 10 8 16 16 21 27 16 25 -11 81 -13 81 -3 0 5 13 9 29 9
17 0 33 5 36 10 5 8 11 7 21 -1 10 -8 14 -8 14 0 0 6 8 11 18 11 10 0 26 6 37
14 28 18 75 29 75 16 0 -15 26 -12 44 5 8 8 24 15 36 15 12 0 18 5 15 10 -8
13 1 13 25 0z m-4469 -33 c-13 -13 -26 -3 -16 12 3 6 11 8 17 5 6 -4 6 -10 -1
-17z m162 -12 c32 -8 60 -15 62 -15 16 0 1 -17 -24 -28 -37 -16 -145 -12 -147
6 -3 24 -4 26 -16 14 -9 -9 -8 -15 7 -25 21 -16 14 -32 -17 -40 -13 -3 -39
-10 -58 -15 -26 -6 -39 -5 -48 4 -21 22 -14 39 8 19 13 -12 20 -14 20 -6 0 14
-38 72 -53 82 -22 15 17 19 48 5 34 -17 64 -12 78 11 9 15 51 12 140 -12z
m762 -6 c4 -6 -1 -16 -11 -24 -24 -17 -42 -2 -24 20 15 18 26 19 35 4z m3655
-43 c0 -3 -4 -8 -10 -11 -5 -3 -10 -1 -10 4 0 6 5 11 10 11 6 0 10 -2 10 -4z
m-3249 -95 c-17 -11 3 -25 22 -16 6 4 4 0 -5 -8 -10 -8 -18 -21 -18 -30 0 -8
-5 -17 -12 -19 -8 -3 -7 -8 4 -18 13 -13 9 -17 -32 -37 -26 -12 -62 -24 -81
-27 -49 -7 -79 -17 -79 -27 0 -5 -7 -9 -15 -9 -8 0 -19 -9 -25 -19 -16 -32
-140 -49 -140 -20 0 5 -7 9 -15 9 -16 0 -74 37 -87 55 -15 20 -8 46 15 54 12
5 31 18 41 30 30 33 203 77 321 80 27 1 51 4 54 7 2 2 18 4 35 4 21 0 27 -3
17 -9z m3216 -163 c-3 -7 -5 -2 -5 12 0 14 2 19 5 13 2 -7 2 -19 0 -25z
m-3917 -3 c0 -8 -4 -15 -10 -15 -5 0 -10 7 -10 15 0 8 5 15 10 15 6 0 10 -7
10 -15z m4 -57 c7 -34 3 -44 -13 -33 -13 7 -15 65 -2 65 5 0 11 -14 15 -32z
m3926 -29 c0 -6 -4 -7 -10 -4 -5 3 -10 11 -10 16 0 6 5 7 10 4 6 -3 10 -11 10
-16z m-610 1 c0 -5 -4 -10 -10 -10 -5 0 -10 5 -10 10 0 6 5 10 10 10 6 0 10
-4 10 -10z m-9606 -42 c22 -31 20 -74 -4 -98 -27 -27 -56 -25 -85 5 -47 46
-23 115 41 115 23 0 38 -7 48 -22z m6164 -286 c2 -7 -3 -12 -12 -12 -9 0 -16
7 -16 16 0 17 22 14 28 -4z m3562 -98 c28 -19 31 -24 14 -24 -11 0 -24 4 -29
8 -6 5 -37 15 -70 22 -51 11 -56 14 -35 21 35 10 79 0 120 -27z m-3510 -12 c0
-5 -7 -9 -15 -9 -8 0 -12 4 -9 9 3 4 9 8 15 8 5 0 9 -4 9 -8z m2825 -2 c3 -5
-1 -10 -9 -10 -9 0 -16 5 -16 10 0 6 4 10 9 10 6 0 13 -4 16 -10z m-2825 -30
c0 -5 -10 -10 -22 -10 -19 0 -20 2 -8 10 19 13 30 13 30 0z m1791 -66 c19 -7
54 -63 44 -72 -3 -3 -10 0 -15 8 -5 8 -13 15 -17 15 -4 0 -23 6 -40 14 -28 11
-31 16 -22 33 6 10 16 17 22 14 7 -3 19 -9 28 -12z m-303 -32 c2 -7 -3 -12
-12 -12 -9 0 -16 7 -16 16 0 17 22 14 28 -4z m-3866 -64 c-6 -6 -15 -8 -19 -4
-4 4 -1 11 7 16 19 12 27 3 12 -12z m53 2 c3 -5 -1 -10 -9 -10 -9 0 -16 5 -16
10 0 6 4 10 9 10 6 0 13 -4 16 -10z m4205 -77 c0 -20 -28 -15 -50 7 -24 24
-25 30 -3 57 l18 21 17 -36 c9 -20 17 -43 18 -49z m-1186 -68 c28 -12 36 -21
36 -40 0 -14 5 -25 10 -25 6 0 10 -11 10 -25 0 -14 -4 -25 -8 -25 -5 0 -15 11
-22 25 -7 14 -19 25 -26 25 -8 0 -29 9 -49 20 -35 20 -35 20 -47 0 -13 -21
-52 -27 -63 -11 -3 6 11 17 30 27 23 10 34 22 31 30 -7 19 51 18 98 -1z m-529
-15 c8 -13 -4 -50 -16 -50 -13 0 -22 27 -15 45 6 17 22 20 31 5z m1428 -17
c-7 -2 -19 -2 -25 0 -7 3 -2 5 12 5 14 0 19 -2 13 -5z m2095 -19 c43 -30 80
-130 61 -165 -9 -17 -17 -20 -41 -15 -46 9 -59 24 -56 67 2 44 6 40 -49 64
-45 19 -58 50 -25 58 38 10 89 6 110 -9z m-3858 -19 c0 -14 -3 -26 -7 -26 -5
-1 -19 -3 -33 -5 -65 -10 -65 -10 -65 16 0 25 23 37 78 39 22 1 27 -3 27 -24z
m3720 -45 c0 -24 -6 -33 -26 -40 -61 -24 -72 -1 -21 42 41 35 47 35 47 -2z
m-7114 -122 c-17 -327 -66 -1387 -86 -1818 -39 -863 -56 -1253 -100 -2300 -31
-745 -39 -958 -41 -1055 -2 -138 0 -135 -113 -135 l-94 0 -8 78 c-7 70 10
2339 21 2957 3 143 10 654 15 1135 6 481 13 893 15 915 5 36 13 45 86 99 44
33 126 103 182 157 56 54 108 98 116 99 11 0 12 -24 7 -132z m3742 88 c3 -13
-1 -17 -14 -14 -11 2 -20 11 -22 22 -3 13 1 17 14 14 11 -2 20 -11 22 -22z
m-608 -21 c0 -18 -33 -65 -45 -65 -23 0 -18 36 8 53 23 17 37 21 37 12z m270
-34 c0 -12 -29 -23 -41 -15 -5 3 -7 10 -4 15 8 12 45 12 45 0z m2099 -114 c6
-8 8 -17 4 -20 -7 -8 -33 11 -33 24 0 13 16 11 29 -4z m-139 -80 c18 -16 25
-33 26 -59 1 -53 -19 -48 -45 11 -32 76 -27 90 19 48z m1322 -154 c23 -3 44
-1 52 6 12 10 20 9 41 -5 19 -13 32 -15 43 -8 10 6 24 9 33 7 15 -4 49 -52 49
-71 0 -17 -35 -23 -64 -12 -15 5 -75 13 -133 16 -59 3 -110 7 -114 10 -4 2
-60 11 -124 19 -125 15 -135 18 -135 42 0 14 18 15 158 9 86 -4 174 -9 194
-13z m748 -47 c0 -36 -15 -56 -42 -56 -21 0 -29 16 -32 62 -1 26 3 33 24 38
33 9 50 -6 50 -44z m-8008 32 c2 -7 1 -188 -3 -403 -4 -214 -10 -642 -13 -950
-4 -308 -8 -625 -11 -705 -3 -80 -8 -507 -11 -950 -4 -443 -9 -1068 -13 -1390
l-6 -585 -91 -3 -92 -3 -6 43 c-11 75 -26 484 -41 1128 -8 344 -20 812 -25
1040 -10 397 -32 1501 -46 2265 l-7 360 129 60 c71 33 147 70 169 82 46 26 61
28 67 11z m7848 3 c0 -12 -56 -25 -70 -16 -22 13 -8 25 30 25 22 0 40 -4 40
-9z m-10232 -154 c62 -32 141 -69 175 -81 34 -13 65 -30 69 -37 4 -8 89 -745
188 -1639 193 -1739 231 -2068 309 -2699 28 -222 48 -408 45 -413 -9 -14 -173
-7 -185 8 -11 13 -88 464 -144 839 -153 1032 -152 1023 -385 2652 -110 766
-200 1402 -200 1413 0 12 4 20 8 18 4 -1 58 -29 120 -61z m1846 -149 c3 -40 8
-287 11 -548 3 -261 8 -545 10 -630 3 -85 10 -398 15 -695 14 -747 27 -1313
50 -2118 11 -379 17 -693 14 -698 -7 -12 -151 -12 -174 1 -12 6 -20 26 -24 57
-11 85 -35 393 -46 588 -5 105 -24 426 -40 715 -79 1392 -172 3302 -161 3313
4 4 59 21 122 37 63 16 128 34 144 39 69 21 73 18 79 -61z m-1294 -32 c41 -8
106 -17 143 -21 57 -6 69 -10 76 -28 5 -12 13 -87 20 -167 14 -183 96 -1156
161 -1920 71 -823 113 -1286 171 -1885 65 -670 63 -655 53 -656 -185 -11 -192
-11 -198 8 -6 19 -11 55 -51 344 -26 187 -134 1081 -185 1534 -17 149 -39 347
-50 440 -26 223 -79 700 -130 1160 -23 204 -61 549 -86 768 -24 219 -44 407
-44 417 0 24 17 25 120 6z m765 -28 c2 -7 14 -209 25 -448 44 -914 121 -2460
140 -2795 11 -192 31 -539 45 -770 13 -231 25 -467 27 -525 l3 -105 -50 -3
c-27 -2 -69 -1 -91 3 -37 5 -43 9 -48 38 -33 182 -171 1667 -351 3792 -24 292
-50 590 -56 663 -6 73 -9 135 -7 138 5 5 211 20 301 23 38 1 59 -3 62 -11z
m8130 -137 c-3 -5 -1 -12 4 -15 11 -7 12 -66 1 -66 -4 0 -10 10 -13 23 -3 12
-9 32 -12 45 -6 17 -3 22 9 22 10 0 15 -4 11 -9z m80 -39 c0 -46 -19 -44 -23
2 -3 28 0 37 10 34 7 -3 13 -19 13 -36z m-1625 -596 c0 -2 -6 -16 -14 -31 -13
-26 -14 -26 -21 -6 -8 25 1 41 21 41 8 0 14 -2 14 -4z m-4194 -204 c-12 -11
-18 7 -10 30 l8 23 4 -23 c2 -13 1 -26 -2 -30z m4581 -405 c-5 -15 -19 -18
-36 -8 -8 5 -11 16 -8 25 5 14 11 15 27 6 12 -6 20 -16 17 -23z m221 -474 c-4
-24 -38 -26 -38 -2 0 13 7 19 21 19 14 0 19 -5 17 -17z m23 -75 c22 -53 -31
-68 -60 -16 -12 21 -13 29 -3 41 18 22 48 10 63 -25z m-11386 -428 c116 -5
309 -15 430 -20 231 -11 814 -50 1120 -75 99 -8 266 -19 370 -26 105 -6 195
-15 201 -20 7 -5 17 -74 23 -157 13 -161 59 -598 66 -622 3 -8 11 -73 19 -145
53 -457 92 -763 101 -787 13 -33 -34 -66 -130 -91 -86 -23 -91 -25 -101 -58
-7 -19 -26 -64 -43 -102 -17 -37 -31 -71 -31 -76 0 -11 -41 -45 -75 -61 -16
-8 -32 -18 -35 -21 -7 -9 -122 -33 -350 -74 -107 -19 -229 -42 -270 -50 -41
-8 -90 -17 -108 -20 -18 -2 -36 -6 -40 -9 -4 -2 -29 -7 -56 -10 -27 -4 -53 -9
-56 -11 -7 -4 -130 -25 -235 -40 -16 -2 -56 -9 -88 -15 -33 -6 -66 -9 -74 -6
-8 3 -21 -1 -29 -9 -9 -8 -28 -15 -44 -15 -15 0 -72 -9 -126 -20 -55 -10 -119
-22 -143 -25 -24 -3 -89 -14 -145 -26 -55 -11 -129 -20 -163 -20 -34 0 -65 -4
-68 -9 -3 -5 -28 -8 -55 -6 -30 1 -47 -1 -43 -7 4 -6 -4 -7 -21 -3 -15 4 -26
2 -26 -4 0 -5 -9 -10 -20 -10 -11 0 -53 -8 -93 -18 -87 -23 -118 -25 -153 -12
-22 9 -25 8 -20 -6 5 -12 2 -15 -11 -10 -10 4 -26 -3 -43 -19 -25 -24 -31 -25
-82 -17 -74 11 -169 67 -257 148 -79 73 -200 222 -219 269 -17 41 -114 142
-190 198 -98 72 -171 86 -267 51 -27 -9 -118 -74 -127 -89 -4 -7 -24 -32 -44
-56 -21 -24 -50 -73 -67 -109 -79 -176 -136 -292 -176 -360 -62 -107 -222
-288 -288 -326 -18 -10 -33 -22 -33 -27 0 -5 -17 -6 -37 -4 -21 3 -42 2 -48
-3 -6 -5 -53 -10 -105 -13 -88 -4 -133 -10 -170 -24 -8 -3 -22 -7 -30 -8 -8
-1 -98 -14 -200 -29 -102 -15 -302 -47 -445 -71 -143 -24 -280 -46 -305 -49
-25 -3 -92 -12 -150 -20 -57 -8 -106 -13 -109 -10 -2 2 -13 -3 -23 -13 -24
-22 -187 -27 -195 -6 -5 11 -9 11 -23 -2 -9 -8 -25 -13 -34 -9 -9 3 -16 1 -16
-5 0 -15 33 -14 49 2 11 10 13 9 9 -3 -4 -11 -21 -15 -69 -15 -38 0 -69 -5
-78 -13 -9 -9 -17 -10 -26 -2 -8 7 -14 7 -17 1 -1 -5 -25 -11 -53 -14 -31 -3
-49 -9 -47 -16 1 -7 -11 -12 -30 -12 -61 0 -134 -5 -143 -11 -6 -3 -22 -4 -37
-2 -18 1 -28 -2 -28 -10 0 -10 -12 -10 -55 -3 -48 9 -57 8 -75 -8 -16 -14 -23
-16 -32 -7 -9 9 -7 12 11 12 17 0 22 4 17 16 -3 9 -6 20 -6 25 0 5 -9 9 -20 9
-11 0 -19 -3 -19 -7 6 -35 -2 -41 -51 -39 -33 2 -49 -1 -47 -8 3 -7 -11 -12
-33 -14 -26 -2 -40 2 -44 13 -3 8 -16 15 -28 15 -15 0 -19 3 -11 8 20 12 4 55
-18 49 -11 -3 -22 -1 -25 5 -4 6 -9 6 -14 -2 -12 -20 -66 2 -62 25 3 13 -1 16
-13 11 -11 -4 -15 -2 -12 6 2 7 12 12 21 12 18 -2 22 11 5 22 -6 3 -14 1 -18
-5 -6 -9 -15 -9 -37 0 -35 15 -82 13 -229 -7 -106 -15 -113 -14 -156 4 -24 11
-60 23 -79 27 -19 4 -93 31 -165 59 -71 29 -149 58 -172 65 -42 14 -42 14
-174 265 -73 138 -140 265 -149 281 -9 17 -54 102 -100 190 -103 199 -194 366
-225 411 -13 19 -73 72 -132 117 -60 45 -133 101 -163 124 -60 45 -190 116
-198 108 -8 -8 -21 -197 -30 -420 l-7 -200 -113 -2 c-106 -1 -113 0 -124 20
-19 34 -15 459 6 637 47 407 73 529 143 681 39 86 62 104 113 89 42 -12 170
-86 299 -174 153 -103 506 -258 857 -375 l271 -90 104 14 c57 8 241 36 409 64
340 56 741 119 1140 181 360 55 496 77 620 100 58 11 157 28 220 40 63 11 198
36 300 55 102 18 370 63 595 100 226 37 653 107 950 155 297 49 562 92 588 96
28 4 51 13 56 23 5 9 20 68 35 131 32 141 108 330 155 388 19 24 54 57 77 72
37 26 51 30 135 33 52 1 112 4 134 5 22 1 135 -2 250 -8z m11425 0 c0 -13 -28
-25 -38 -16 -3 4 0 11 8 16 20 13 30 12 30 0z m-16353 -3436 c-3 -3 -12 -4
-19 -1 -8 3 -5 6 6 6 11 1 17 -2 13 -5z"/>
<path d="M27477 20923 c-4 -3 -7 -11 -7 -17 0 -6 5 -5 12 2 6 6 9 14 7 17 -3
3 -9 2 -12 -2z"/>
<path d="M27480 20859 c0 -11 5 -17 10 -14 6 3 10 13 10 21 0 8 -4 14 -10 14
-5 0 -10 -9 -10 -21z"/>
<path d="M27412 20847 c-12 -13 -22 -29 -22 -35 0 -7 -6 -12 -14 -12 -8 0 -16
-7 -20 -15 -9 -25 5 -45 31 -45 22 0 23 -2 9 -15 -8 -8 -19 -15 -25 -15 -7 0
-9 -10 -4 -27 7 -32 40 -89 48 -85 7 3 25 -15 47 -46 15 -23 16 -22 23 24 4
28 16 56 30 70 18 18 24 36 26 86 4 63 4 63 -22 60 -32 -4 -59 21 -59 54 0 30
-20 31 -48 1z"/>
<path d="M24916 20319 c-25 -15 -4 -29 45 -29 30 0 43 -7 68 -35 17 -20 31
-42 31 -50 0 -19 29 -20 36 -2 3 8 -12 39 -32 70 -36 56 -38 57 -83 57 -25 0
-54 -5 -65 -11z"/>
<path d="M26980 20281 c0 -13 37 -24 51 -15 8 4 7 9 -2 15 -19 12 -49 11 -49
0z"/>
<path d="M27032 20251 c-16 -10 -2 -73 22 -106 8 -11 12 -30 9 -42 -5 -22 -2
-23 43 -23 41 1 54 5 79 31 35 35 27 60 -22 70 -36 7 -99 44 -111 64 -4 9 -12
11 -20 6z"/>
<path d="M29116 20200 c5 -30 9 -93 9 -139 l0 -85 60 -23 c33 -12 72 -36 88
-53 l27 -30 2 27 c2 47 -2 77 -14 101 -9 17 -9 25 0 34 7 7 12 20 12 29 0 19
-61 59 -90 59 -13 0 -22 10 -28 33 -5 18 -24 48 -42 67 l-32 35 8 -55z"/>
<path d="M27845 20226 c-15 -11 -17 -18 -9 -26 16 -16 56 -2 52 18 -4 22 -20
25 -43 8z"/>
<path d="M28736 20100 c9 -16 20 -30 25 -30 13 0 11 13 -7 38 -22 32 -35 27
-18 -8z"/>
<path d="M27656 20105 c-8 -8 -24 -15 -36 -15 -11 0 -23 -7 -27 -15 -8 -24 5
-30 24 -13 10 9 36 25 58 37 30 16 34 21 18 21 -12 0 -28 -7 -37 -15z"/>
<path d="M27904 20027 l-21 -22 23 -22 c31 -30 37 -29 57 12 16 33 16 35 -3
45 -26 14 -32 13 -56 -13z"/>
<path d="M27022 20028 c-16 -16 -15 -38 2 -38 13 0 26 20 26 41 0 13 -14 11
-28 -3z"/>
<path d="M27098 20018 c-8 -20 2 -38 19 -38 10 0 13 6 9 16 -3 9 -6 20 -6 25
0 13 -17 11 -22 -3z"/>
<path d="M27217 20004 c-11 -11 3 -24 24 -24 12 0 19 5 17 13 -5 14 -31 21
-41 11z"/>
<path d="M27060 19843 c-35 -7 -60 -32 -60 -60 0 -16 6 -23 20 -23 10 0 24 -9
30 -21 11 -20 13 -19 56 24 43 44 57 77 32 77 -7 0 -22 2 -33 4 -11 2 -31 2
-45 -1z"/>
<path d="M27286 19836 c3 -8 0 -17 -6 -21 -8 -5 -5 -12 9 -22 27 -18 27 -37 1
-30 -23 6 -26 -5 -7 -21 10 -9 19 -8 34 3 18 13 20 21 14 71 0 6 -12 16 -26
22 -19 9 -23 9 -19 -2z"/>
<path d="M27170 19825 c0 -8 4 -15 9 -15 5 0 14 7 21 15 10 13 9 15 -9 15 -12
0 -21 -6 -21 -15z"/>
<path d="M29520 19795 c-8 -9 -8 -15 -2 -15 12 0 26 19 19 26 -2 2 -10 -2 -17
-11z"/>
<path d="M27060 19691 c0 -6 4 -13 10 -16 6 -3 7 1 4 9 -7 18 -14 21 -14 7z"/>
<path d="M29085 19660 c3 -5 8 -10 11 -10 2 0 4 5 4 10 0 6 -5 10 -11 10 -5 0
-7 -4 -4 -10z"/>
<path d="M27038 19643 c-27 -14 -39 -43 -17 -43 6 0 9 -6 6 -12 -2 -8 -16 -12
-35 -10 -20 2 -32 -1 -32 -8 0 -7 -9 -25 -21 -41 -20 -29 -20 -59 1 -59 5 0
10 7 10 15 0 18 18 19 56 5 20 -8 36 -8 56 1 32 13 36 34 11 61 -13 15 -14 23
-5 44 13 28 16 65 5 63 -5 -1 -20 -8 -35 -16z"/>
<path d="M28977 19642 c-3 -4 -8 -25 -12 -47 -4 -22 -12 -55 -18 -72 -17 -51
3 -63 48 -28 20 15 39 35 42 44 4 9 11 19 16 22 4 3 11 25 14 48 l6 42 -27
-11 c-18 -7 -33 -7 -46 0 -10 6 -21 7 -23 2z"/>
<path d="M29401 19605 c-25 -27 -17 -34 13 -12 11 8 17 19 15 25 -2 6 -14 1
-28 -13z"/>
<path d="M27830 19415 c-11 -13 -45 -27 -102 -39 -25 -6 -41 -36 -19 -36 5 0
13 -9 16 -20 10 -32 47 -34 128 -5 110 39 115 44 78 79 -34 33 -83 43 -101 21z"/>
<path d="M26155 19040 c-3 -5 -2 -10 4 -10 5 0 13 5 16 10 3 6 2 10 -4 10 -5
0 -13 -4 -16 -10z"/>
<path d="M26130 18992 c-8 -3 -23 -12 -33 -21 -18 -15 -18 -16 5 -22 19 -5 51
3 67 17 8 7 -26 30 -39 26z"/>
<path d="M24245 18951 c-3 -5 -1 -12 5 -16 5 -3 10 1 10 9 0 18 -6 21 -15 7z"/>
<path d="M32480 20865 c7 -9 15 -13 17 -11 7 7 -7 26 -19 26 -6 0 -6 -6 2 -15z"/>
<path d="M32525 20813 c3 -8 5 -17 5 -19 0 -2 5 -4 10 -4 6 0 10 8 10 18 0 10
-7 19 -15 19 -10 0 -14 -6 -10 -14z"/>
<path d="M31095 20760 c-3 -5 -1 -10 4 -10 6 0 11 5 11 10 0 6 -2 10 -4 10 -3
0 -8 -4 -11 -10z"/>
<path d="M32135 20760 c3 -5 8 -10 11 -10 2 0 4 5 4 10 0 6 -5 10 -11 10 -5 0
-7 -4 -4 -10z"/>
<path d="M31165 20731 c-3 -5 -1 -12 4 -15 5 -3 11 1 15 9 6 16 -9 21 -19 6z"/>
<path d="M31180 20691 c-6 -12 -7 -21 -1 -21 10 0 24 30 17 37 -2 3 -9 -5 -16
-16z"/>
<path d="M31140 20692 c0 -7 -8 -12 -17 -12 -14 0 -15 -2 -4 -9 11 -7 11 -9 0
-14 -10 -4 -10 -6 2 -6 15 -1 34 37 24 48 -3 2 -5 -1 -5 -7z"/>
<path d="M32077 20693 c-4 -3 -7 -11 -7 -17 0 -6 5 -5 12 2 6 6 9 14 7 17 -3
3 -9 2 -12 -2z"/>
<path d="M31060 20681 c0 -6 4 -13 10 -16 6 -3 7 1 4 9 -7 18 -14 21 -14 7z"/>
<path d="M31560 20670 c0 -5 5 -10 10 -10 6 0 10 5 10 10 0 6 -4 10 -10 10 -5
0 -10 -4 -10 -10z"/>
<path d="M32978 20673 c7 -3 16 -2 19 1 4 3 -2 6 -13 5 -11 0 -14 -3 -6 -6z"/>
<path d="M30970 20660 c-12 -8 -11 -10 8 -10 12 0 22 5 22 10 0 13 -11 13 -30
0z"/>
<path d="M32920 20659 c0 -5 5 -7 10 -4 6 3 10 8 10 11 0 2 -4 4 -10 4 -5 0
-10 -5 -10 -11z"/>
<path d="M31596 20646 c3 -9 11 -16 16 -16 13 0 5 23 -10 28 -7 2 -10 -2 -6
-12z"/>
<path d="M31152 20630 c0 -14 2 -19 5 -12 2 6 2 18 0 25 -3 6 -5 1 -5 -13z"/>
<path d="M31115 20630 c3 -5 8 -10 11 -10 2 0 4 5 4 10 0 6 -5 10 -11 10 -5 0
-7 -4 -4 -10z"/>
<path d="M32999 20617 c5 -5 17 -5 28 2 16 9 15 10 -9 9 -16 -2 -24 -6 -19
-11z"/>
<path d="M33166 20501 c-4 -5 -2 -12 3 -15 5 -4 12 -2 15 3 4 5 2 12 -3 15 -5
4 -12 2 -15 -3z"/>
<path d="M30580 20429 c0 -5 5 -7 10 -4 6 3 10 8 10 11 0 2 -4 4 -10 4 -5 0
-10 -5 -10 -11z"/>
<path d="M30380 20321 c0 -6 4 -13 10 -16 6 -3 7 1 4 9 -7 18 -14 21 -14 7z"/>
<path d="M33295 20300 c3 -5 8 -10 11 -10 2 0 4 5 4 10 0 6 -5 10 -11 10 -5 0
-7 -4 -4 -10z"/>
<path d="M33586 20227 c3 -10 9 -15 12 -12 3 3 0 11 -7 18 -10 9 -11 8 -5 -6z"/>
<path d="M33355 20211 c3 -6 -2 -14 -11 -19 -12 -7 -13 -11 -5 -17 7 -4 18 1
26 11 14 19 11 34 -6 34 -6 0 -8 -4 -4 -9z"/>
<path d="M33465 20180 c3 -5 8 -10 11 -10 2 0 4 5 4 10 0 6 -5 10 -11 10 -5 0
-7 -4 -4 -10z"/>
<path d="M33873 20038 c10 -10 16 -22 12 -28 -3 -5 -2 -10 4 -10 16 0 19 14 9
40 -6 15 -12 20 -15 12 -3 -7 -10 -10 -17 -5 -7 4 -4 0 7 -9z"/>
<path d="M33670 20031 c0 -6 4 -13 10 -16 6 -3 7 1 4 9 -7 18 -14 21 -14 7z"/>
<path d="M33801 19916 c-9 -10 -9 -16 -1 -21 6 -4 14 -4 17 -1 4 3 1 6 -7 6
-10 0 -10 3 0 15 7 8 10 15 7 15 -2 0 -10 -6 -16 -14z"/>
<path d="M34036 19904 c-5 -14 -4 -15 9 -4 17 14 19 20 6 20 -5 0 -12 -7 -15
-16z"/>
<path d="M34065 19890 c3 -5 8 -10 11 -10 2 0 4 5 4 10 0 6 -5 10 -11 10 -5 0
-7 -4 -4 -10z"/>
<path d="M33915 19720 c3 -5 1 -10 -4 -10 -6 0 -11 -7 -11 -15 0 -18 1 -18 34
-2 l26 14 -26 12 c-15 6 -23 7 -19 1z"/>
<path d="M33853 19679 c9 -6 15 -14 12 -20 -4 -5 2 -9 11 -9 16 0 16 1 -1 20
-10 11 -23 20 -29 20 -6 0 -3 -5 7 -11z"/>
<path d="M33830 19631 c0 -7 -4 -9 -10 -6 -5 3 -10 -1 -10 -10 0 -11 5 -15 16
-11 8 3 12 2 9 -4 -9 -15 17 -11 39 5 17 13 18 17 6 28 -10 9 -12 9 -6 0 9
-17 -16 -17 -32 -1 -9 9 -12 9 -12 -1z"/>
<path d="M33914 19632 c3 -5 1 -12 -6 -14 -8 -3 -6 -7 5 -11 20 -7 24 17 5 29
-6 4 -8 3 -4 -4z"/>
<path d="M33883 19594 c3 -4 -5 -15 -18 -26 -14 -11 -25 -27 -25 -37 0 -18 55
-56 69 -47 5 3 12 -6 16 -22 7 -25 8 -25 15 -7 8 24 1 95 -10 95 -4 0 -11 11
-14 25 -4 14 -14 25 -23 25 -9 0 -13 -3 -10 -6z"/>
<path d="M33819 19578 c-9 -30 -6 -36 11 -25 18 11 18 27 -1 27 -5 0 -9 -1
-10 -2z"/>
<path d="M30010 19490 c0 -6 7 -10 15 -10 8 0 15 2 15 4 0 2 -7 6 -15 10 -8 3
-15 1 -15 -4z"/>
<path d="M33850 19492 c0 -7 -4 -11 -9 -8 -5 3 -13 0 -19 -7 -8 -9 -3 -13 19
-14 31 -2 35 3 19 27 -7 11 -10 11 -10 2z"/>
<path d="M30050 19458 c0 -9 7 -19 16 -22 15 -6 15 -4 3 11 -7 10 -15 20 -16
22 -2 2 -3 -3 -3 -11z"/>
<path d="M30095 19461 c-18 -7 -17 -9 10 -19 17 -6 22 -11 13 -11 -10 -1 -23
-11 -29 -23 -11 -20 -10 -21 3 -10 9 7 22 10 30 7 10 -4 14 3 13 26 0 35 -9
42 -40 30z"/>
<path d="M30323 19441 c0 -11 6 -17 14 -14 18 7 17 33 -1 33 -8 0 -14 -8 -13
-19z"/>
<path d="M33895 19450 c-3 -5 1 -10 10 -10 9 0 13 5 10 10 -3 6 -8 10 -10 10
-2 0 -7 -4 -10 -10z"/>
<path d="M33965 19440 c-3 -5 -1 -10 4 -10 6 0 11 5 11 10 0 6 -2 10 -4 10 -3
0 -8 -4 -11 -10z"/>
<path d="M34290 19421 c0 -5 5 -13 10 -16 6 -3 10 -2 10 4 0 5 -4 13 -10 16
-5 3 -10 2 -10 -4z"/>
<path d="M30031 19413 c-1 -17 16 -25 25 -12 4 7 3 9 -4 5 -5 -3 -13 0 -15 6
-4 9 -6 10 -6 1z"/>
<path d="M33970 19400 c0 -6 7 -10 15 -10 8 0 15 2 15 4 0 2 -7 6 -15 10 -8 3
-15 1 -15 -4z"/>
<path d="M30281 19386 c-8 -10 -9 -16 -1 -21 5 -3 10 0 10 7 1 7 7 0 14 -17
l14 -30 -3 30 c-2 17 -4 33 -4 38 -1 12 -18 8 -30 -7z"/>
<path d="M30240 19379 c0 -5 5 -7 10 -4 6 3 10 8 10 11 0 2 -4 4 -10 4 -5 0
-10 -5 -10 -11z"/>
<path d="M30050 19366 c0 -2 7 -7 16 -10 8 -3 12 -2 9 4 -6 10 -25 14 -25 6z"/>
<path d="M30144 19352 c-7 -5 -5 -13 6 -25 15 -15 18 -16 23 -3 7 17 -14 38
-29 28z"/>
<path d="M30340 19322 c0 -5 7 -13 16 -16 10 -4 14 -1 12 6 -5 15 -28 23 -28
10z"/>
<path d="M30251 19304 c0 -11 3 -14 6 -6 3 7 2 16 -1 19 -3 4 -6 -2 -5 -13z"/>
<path d="M30270 19310 c0 -5 4 -10 9 -10 6 0 13 5 16 10 3 6 -1 10 -9 10 -9 0
-16 -4 -16 -10z"/>
<path d="M34140 19279 c0 -5 5 -7 10 -4 6 3 10 8 10 11 0 2 -4 4 -10 4 -5 0
-10 -5 -10 -11z"/>
<path d="M34058 19273 c7 -3 16 -2 19 1 4 3 -2 6 -13 5 -11 0 -14 -3 -6 -6z"/>
<path d="M34320 19270 c0 -5 5 -10 11 -10 5 0 7 5 4 10 -3 6 -8 10 -11 10 -2
0 -4 -4 -4 -10z"/>
<path d="M33990 19252 c0 -7 -5 -10 -12 -6 -6 4 -8 3 -5 -2 3 -5 20 -10 39
-11 18 0 24 1 13 4 -11 3 -23 10 -27 17 -6 8 -8 7 -8 -2z"/>
<path d="M30030 19180 c-8 -5 -10 -10 -5 -10 6 0 17 5 25 10 8 5 11 10 5 10
-5 0 -17 -5 -25 -10z"/>
<path d="M34055 19180 c3 -5 8 -10 11 -10 2 0 4 5 4 10 0 6 -5 10 -11 10 -5 0
-7 -4 -4 -10z"/>
<path d="M34210 19153 c0 -5 -10 -14 -22 -20 -21 -9 -21 -10 -3 -17 11 -4 16
-4 12 0 -4 4 1 13 11 20 9 7 14 16 9 20 -4 4 -7 3 -7 -3z"/>
<path d="M34627 18965 c-4 -8 -2 -17 3 -20 6 -4 10 3 10 14 0 25 -6 27 -13 6z"/>
<path d="M34670 18950 c0 -5 5 -10 11 -10 5 0 7 5 4 10 -3 6 -8 10 -11 10 -2
0 -4 -4 -4 -10z"/>
<path d="M34666 18888 c5 -8 1 -9 -12 -4 -14 5 -16 4 -7 -5 6 -6 16 -8 22 -5
14 9 14 26 0 26 -5 0 -7 -5 -3 -12z"/>
<path d="M34603 18326 c0 -11 5 -13 19 -5 10 5 18 12 18 14 0 3 -8 5 -18 5
-10 0 -19 -7 -19 -14z"/>
<path d="M34620 18216 c0 -2 7 -7 16 -10 8 -3 12 -2 9 4 -6 10 -25 14 -25 6z"/>
<path d="M34516 18032 c-3 -5 1 -9 9 -9 8 0 12 4 9 9 -3 4 -7 8 -9 8 -2 0 -6
-4 -9 -8z"/>
<path d="M34296 17732 c-3 -5 1 -9 9 -9 8 0 12 4 9 9 -3 4 -7 8 -9 8 -2 0 -6
-4 -9 -8z"/>
<path d="M34445 17701 c-3 -5 -1 -12 5 -16 5 -3 10 1 10 9 0 18 -6 21 -15 7z"/>
<path d="M34400 17639 c0 -11 4 -18 10 -14 5 3 7 12 3 20 -7 21 -13 19 -13 -6z"/>
<path d="M34280 17425 c0 -8 9 -15 20 -15 11 0 20 2 20 5 0 2 -9 9 -20 15 -16
9 -20 8 -20 -5z"/>
<path d="M34290 17349 c0 -5 5 -7 10 -4 6 3 10 8 10 11 0 2 -4 4 -10 4 -5 0
-10 -5 -10 -11z"/>
<path d="M34230 17331 c0 -6 4 -13 10 -16 6 -3 7 1 4 9 -7 18 -14 21 -14 7z"/>
<path d="M34224 17275 c-18 -14 -18 -14 4 -8 12 3 22 9 22 14 0 12 -3 11 -26
-6z"/>
<path d="M33310 16879 c0 -5 5 -7 10 -4 6 3 10 8 10 11 0 2 -4 4 -10 4 -5 0
-10 -5 -10 -11z"/>
<path d="M33805 16864 c9 -9 19 -13 23 -10 3 4 0 11 -8 16 -24 15 -33 11 -15
-6z"/>
<path d="M34000 16851 c0 -5 5 -13 10 -16 6 -3 10 -2 10 4 0 5 -4 13 -10 16
-5 3 -10 2 -10 -4z"/>
<path d="M34070 16850 c19 -13 30 -13 30 0 0 6 -10 10 -22 10 -19 0 -20 -2 -8
-10z"/>
<path d="M34187 16854 c-13 -13 -7 -24 14 -24 11 0 19 5 17 12 -5 14 -22 21
-31 12z"/>
<path d="M34348 16844 c-8 -7 2 -44 12 -44 4 0 5 11 2 25 -5 27 -6 28 -14 19z"/>
<path d="M34490 16842 c-45 -6 -55 -11 -41 -25 9 -9 14 -9 20 2 6 9 11 10 15
2 8 -13 106 -15 106 -2 0 11 -68 27 -100 23z"/>
<path d="M34630 16841 c0 -10 29 -36 34 -30 1 2 -6 12 -16 22 -10 9 -18 13
-18 8z"/>
<path d="M34750 16805 c0 -8 6 -15 14 -15 8 0 21 -3 30 -6 9 -3 16 -1 16 5 0
6 -7 11 -15 11 -8 0 -15 5 -15 10 0 6 -7 10 -15 10 -8 0 -15 -7 -15 -15z"/>
<path d="M34706 16786 c21 -15 30 -14 19 3 -3 6 -14 11 -23 11 -13 0 -13 -2 4
-14z"/>
<path d="M34846 16792 c-3 -6 -1 -14 5 -17 15 -10 25 3 12 16 -7 7 -13 7 -17
1z"/>
<path d="M34920 16782 c0 -4 10 -13 21 -21 19 -11 21 -11 16 2 -3 9 -1 18 6
21 7 2 0 5 -15 5 -16 1 -28 -2 -28 -7z"/>
<path d="M34980 16782 c0 -20 63 -45 120 -47 30 -1 55 -3 55 -4 0 -2 14 -5 30
-7 17 -3 41 -9 55 -15 29 -11 90 -9 90 3 0 5 -11 5 -26 2 -18 -5 -29 -1 -38
11 -8 11 -27 19 -47 19 -19 1 -40 5 -47 10 -7 4 -38 11 -70 16 -31 5 -72 12
-89 16 -22 4 -33 3 -33 -4z"/>
<path d="M33266 16771 c-4 -6 -16 -11 -27 -11 -10 0 -19 -5 -19 -11 0 -7 12
-8 33 -4 39 9 44 12 30 26 -8 8 -13 8 -17 0z"/>
<path d="M34166 16765 c-3 -8 -13 -15 -22 -15 -16 0 -16 -2 1 -20 10 -11 28
-21 39 -21 17 -1 18 -2 4 -6 -28 -7 -21 -21 7 -15 19 3 25 0 25 -14 1 -29 49
-79 63 -65 8 8 7 11 -3 12 -8 1 3 5 24 8 38 6 64 31 32 31 -9 0 -16 -4 -16
-10 0 -5 -5 -10 -11 -10 -5 0 -8 4 -5 8 2 4 -4 13 -14 20 -12 7 -21 8 -25 2
-9 -15 -25 -12 -25 5 0 8 -4 15 -10 15 -5 0 -10 6 -10 13 0 9 14 14 45 14 28
0 45 -5 45 -12 0 -19 65 -10 97 13 42 31 20 47 -43 34 -31 -7 -53 -7 -60 -1
-8 6 -14 4 -18 -6 -8 -21 -23 -19 -31 4 -7 23 -42 25 -67 3 -15 -12 -16 -12
-11 7 6 24 -2 29 -11 6z m251 -21 c-3 -3 -12 -4 -19 -1 -8 3 -5 6 6 6 11 1 17
-2 13 -5z"/>
<path d="M33476 16762 c-3 -6 -1 -14 5 -17 15 -10 25 3 12 16 -7 7 -13 7 -17
1z"/>
<path d="M33544 16756 c16 -9 31 -14 34 -11 8 8 0 13 -33 20 l-30 7 29 -16z"/>
<path d="M34473 16745 c-6 -17 -14 -37 -17 -46 -6 -13 0 -16 29 -15 33 1 35 3
35 33 0 22 -5 33 -14 33 -8 0 -16 6 -18 12 -3 7 -9 -1 -15 -17z"/>
<path d="M33050 16750 c-13 -8 -12 -10 3 -10 9 0 17 5 17 10 0 12 -1 12 -20 0z"/>
<path d="M33166 16748 c3 -4 11 -5 19 -1 21 7 19 12 -4 10 -11 0 -18 -5 -15
-9z"/>
<path d="M33320 16745 c-11 -13 -10 -14 4 -9 9 3 16 10 16 15 0 13 -6 11 -20
-6z"/>
<path d="M33406 16752 c-3 -5 8 -9 24 -9 16 0 27 4 24 9 -3 4 -14 8 -24 8 -10
0 -21 -4 -24 -8z"/>
<path d="M33625 16750 c-3 -5 1 -10 9 -10 8 0 18 5 21 10 3 6 -1 10 -9 10 -8
0 -18 -4 -21 -10z"/>
<path d="M33766 16744 c-8 -22 -8 -24 7 -24 7 0 13 9 14 20 2 24 -12 27 -21 4z"/>
<path d="M33885 16750 c10 -17 43 -31 49 -21 3 5 -8 14 -24 20 -18 6 -28 6
-25 1z"/>
<path d="M33815 16741 c3 -6 15 -11 25 -11 10 0 21 -6 24 -12 3 -7 5 -4 3 7
-1 14 -11 21 -31 23 -18 2 -26 0 -21 -7z"/>
<path d="M34040 16730 c-24 -8 -23 -8 8 -9 17 -1 32 4 32 9 0 11 -5 11 -40 0z"/>
<path d="M34650 16700 c0 -3 6 -12 13 -19 10 -11 9 -13 -4 -8 -9 3 -21 2 -28
-3 -8 -4 -1 -10 21 -15 47 -10 16 -18 -40 -10 -36 5 -43 9 -29 16 21 12 23 33
2 25 -8 -3 -15 0 -16 7 0 7 -5 0 -11 -15 -5 -16 -14 -28 -20 -28 -7 0 -7 -4 0
-13 14 -17 130 -21 148 -6 8 7 12 20 9 30 -5 14 -1 19 14 19 25 0 28 20 4 21
-10 0 -28 2 -40 3 -13 2 -23 0 -23 -4z"/>
<path d="M35348 16693 c7 -3 16 -2 19 1 4 3 -2 6 -13 5 -11 0 -14 -3 -6 -6z"/>
<path d="M33423 16683 c9 -2 23 -2 30 0 6 3 -1 5 -18 5 -16 0 -22 -2 -12 -5z"/>
<path d="M34827 16683 c-9 -3 -14 -9 -11 -14 3 -6 -2 -9 -11 -7 -10 2 -20 -2
-22 -8 -6 -17 47 -24 89 -12 31 9 42 8 70 -8 33 -19 74 -21 63 -3 -4 5 1 9 9
9 9 0 16 4 16 9 0 5 -9 7 -20 4 -17 -4 -19 -2 -13 13 7 18 6 18 -11 2 -21 -21
-42 -23 -53 -4 -9 14 -76 26 -106 19z"/>
<path d="M35515 16650 c3 -5 11 -10 16 -10 6 0 7 5 4 10 -3 6 -11 10 -16 10
-6 0 -7 -4 -4 -10z"/>
<path d="M34067 16634 c3 -9 0 -19 -6 -24 -9 -5 -8 -9 4 -13 9 -4 18 -1 21 8
7 18 -2 45 -15 45 -6 0 -8 -7 -4 -16z"/>
<path d="M35036 16635 c-3 -9 1 -18 10 -22 21 -8 25 -1 9 20 -11 15 -13 16
-19 2z"/>
<path d="M33590 16630 c0 -5 5 -10 11 -10 5 0 7 5 4 10 -3 6 -8 10 -11 10 -2
0 -4 -4 -4 -10z"/>
<path d="M34905 16630 c3 -5 8 -10 11 -10 2 0 4 5 4 10 0 6 -5 10 -11 10 -5 0
-7 -4 -4 -10z"/>
<path d="M35089 16610 c-6 -4 15 -10 47 -14 31 -3 58 -5 60 -3 7 7 -96 23
-107 17z"/>
<path d="M33955 16600 c3 -5 11 -10 16 -10 6 0 7 5 4 10 -3 6 -11 10 -16 10
-6 0 -7 -4 -4 -10z"/>
<path d="M35310 16595 c0 -8 6 -15 14 -15 8 0 16 -6 19 -12 2 -7 8 -10 11 -6
4 3 -2 16 -13 27 -25 25 -31 26 -31 6z"/>
<path d="M34740 16593 c-14 -3 -29 -9 -35 -15 -7 -8 -6 -9 3 -3 9 4 19 -1 28
-14 19 -26 45 -27 61 -1 11 16 10 21 -6 30 -11 5 -21 9 -23 9 -2 -1 -14 -4
-28 -6z"/>
<path d="M34985 16590 c3 -5 23 -10 43 -9 33 1 34 2 12 9 -36 12 -62 12 -55 0z"/>
<path d="M35218 16548 c5 -5 16 -8 23 -6 8 3 3 7 -10 11 -17 4 -21 3 -13 -5z"/>
<path d="M35350 16520 c8 -5 22 -10 30 -10 13 0 13 1 0 10 -8 5 -22 10 -30 10
-13 0 -13 -1 0 -10z"/>
<path d="M35510 16506 c0 -2 7 -6 15 -10 8 -3 15 -1 15 4 0 6 -7 10 -15 10 -8
0 -15 -2 -15 -4z"/>
<path d="M34490 16468 c0 -16 5 -28 10 -28 13 0 13 20 0 40 -8 12 -10 9 -10
-12z"/>
<path d="M34556 16475 c-3 -9 -6 -22 -5 -28 0 -7 5 -1 10 12 5 13 8 26 5 28
-2 2 -6 -3 -10 -12z"/>
<path d="M34617 16479 c7 -7 15 -10 18 -7 3 3 -2 9 -12 12 -14 6 -15 5 -6 -5z"/>
<path d="M34730 16460 c0 -6 -8 -10 -17 -8 -21 4 -29 -27 -13 -47 19 -23 30
-18 30 15 0 17 5 30 10 30 6 0 10 5 10 10 0 6 -4 10 -10 10 -5 0 -10 -5 -10
-10z"/>
<path d="M34450 16430 c0 -5 5 -10 11 -10 5 0 7 5 4 10 -3 6 -8 10 -11 10 -2
0 -4 -4 -4 -10z"/>
<path d="M35098 16403 c7 -3 16 -2 19 1 4 3 -2 6 -13 5 -11 0 -14 -3 -6 -6z"/>
<path d="M35047 16353 c-15 -14 -5 -23 25 -23 30 0 31 1 12 15 -22 16 -28 18
-37 8z"/>
<path d="M34950 16335 c0 -8 7 -15 16 -15 14 0 14 3 4 15 -7 8 -14 15 -16 15
-2 0 -4 -7 -4 -15z"/>
<path d="M31885 16330 c-3 -5 -1 -10 4 -10 6 0 11 5 11 10 0 6 -2 10 -4 10 -3
0 -8 -4 -11 -10z"/>
<path d="M34822 16318 c3 -7 14 -12 26 -11 36 1 38 3 22 13 -21 14 -52 12 -48
-2z"/>
<path d="M33440 16115 c12 -15 30 -12 30 6 0 5 -10 9 -21 9 -18 0 -19 -2 -9
-15z"/>
<path d="M26833 16705 c-81 -15 -230 -62 -239 -76 -3 -5 19 -76 50 -157 137
-368 235 -625 240 -630 3 -3 63 19 133 49 137 59 133 55 119 124 -6 28 -2 32
50 65 68 42 114 96 151 176 36 80 38 194 4 270 -69 156 -262 224 -508 179z
m302 -410 c30 -29 32 -64 5 -93 -29 -31 -73 -29 -99 4 -27 34 -27 62 1 91 28
30 63 29 93 -2z"/>
<path d="M26100 16504 c-45 -8 -144 -47 -181 -70 -20 -12 -57 -44 -83 -71
-148 -152 -144 -387 8 -538 90 -89 207 -135 341 -135 142 0 262 53 355 158 68
76 93 144 94 252 1 75 -3 93 -30 151 -54 113 -137 187 -260 229 -57 20 -193
33 -244 24z m313 -426 c34 -13 57 -55 57 -103 0 -80 -109 -125 -180 -75 -51
36 -61 108 -21 154 36 42 78 49 144 24z"/>
<path d="M26773 15720 c-78 -14 -239 -68 -261 -88 -20 -17 -18 -22 109 -392
71 -206 133 -378 138 -383 8 -8 256 54 269 68 3 3 1 31 -6 62 -6 30 -9 59 -6
64 2 4 64 -17 137 -48 72 -30 144 -58 159 -60 27 -5 29 -1 84 189 6 21 -5 27
-85 48 l-66 16 -6 130 c-4 92 -11 142 -24 174 -59 143 -161 217 -312 225 -43
2 -101 0 -130 -5z m247 -410 c28 -28 27 -84 -2 -104 -12 -9 -31 -16 -41 -16
-26 0 -67 45 -67 75 0 32 33 65 65 65 14 0 34 -9 45 -20z"/>
<path d="M25940 15501 c-129 -42 -223 -119 -276 -226 -26 -54 -29 -70 -29
-160 0 -89 3 -107 29 -162 66 -143 245 -253 412 -253 266 0 481 202 461 434
-8 103 -41 172 -116 247 -99 98 -202 139 -346 138 -48 0 -102 -7 -135 -18z
m364 -406 c79 -38 88 -146 16 -188 -62 -37 -141 -8 -170 62 -17 41 11 99 60
123 43 22 53 22 94 3z"/>
<path d="M25249 15297 c-176 -49 -317 -249 -295 -420 16 -123 98 -219 246
-291 84 -40 87 -41 195 -41 91 0 118 4 155 22 51 23 134 82 127 89 -2 2 -37
14 -77 25 -128 35 -170 65 -170 123 0 28 48 82 99 112 17 10 31 23 30 29 0 5
-33 89 -72 185 l-72 175 -60 2 c-33 1 -81 -4 -106 -10z"/>
<path d="M35500 16200 c0 -5 5 -10 11 -10 5 0 7 5 4 10 -3 6 -8 10 -11 10 -2
0 -4 -4 -4 -10z"/>
<path d="M35241 16169 c-18 -6 -31 -13 -28 -16 4 -3 19 -2 34 3 15 4 36 8 46
9 10 1 20 5 24 9 9 9 -37 6 -76 -5z"/>
<path d="M35015 16160 c-3 -5 1 -10 9 -10 9 0 16 5 16 10 0 6 -4 10 -9 10 -6
0 -13 -4 -16 -10z"/>
<path d="M35160 16150 c0 -5 5 -10 11 -10 5 0 7 5 4 10 -3 6 -8 10 -11 10 -2
0 -4 -4 -4 -10z"/>
<path d="M35015 16120 c-3 -5 1 -10 10 -10 9 0 13 5 10 10 -3 6 -8 10 -10 10
-2 0 -7 -4 -10 -10z"/>
<path d="M32310 16020 c0 -5 5 -10 11 -10 5 0 7 5 4 10 -3 6 -8 10 -11 10 -2
0 -4 -4 -4 -10z"/>
<path d="M23125 11108 c-27 -5 -63 -10 -80 -13 -16 -2 -75 -11 -130 -20 -55
-9 -118 -17 -140 -19 -22 -1 -65 -8 -95 -15 -30 -6 -77 -16 -105 -21 -27 -5
-77 -14 -110 -21 -33 -6 -87 -15 -120 -19 -33 -5 -123 -20 -200 -35 -77 -15
-156 -28 -176 -30 -44 -5 -150 -65 -171 -97 -9 -13 -38 -46 -64 -74 -53 -54
-68 -83 -109 -215 -23 -76 -26 -102 -26 -214 1 -77 7 -145 15 -173 8 -26 22
-96 31 -157 9 -60 21 -114 26 -119 5 -6 9 -19 9 -31 0 -12 7 -30 15 -41 8 -10
15 -26 15 -34 0 -21 114 -138 167 -172 72 -46 144 -62 258 -55 55 3 141 13
190 21 50 8 151 24 225 36 214 34 611 108 660 123 25 8 88 31 139 53 80 33
104 49 158 104 68 69 104 134 122 219 6 30 16 60 22 67 11 14 -3 267 -21 374
-5 30 -16 94 -24 141 -8 48 -18 95 -24 105 -5 11 -12 45 -16 78 -5 49 -13 66
-47 105 -47 53 -134 103 -229 130 -93 27 -109 29 -165 19z"/>
<path d="M18999 10396 c-3 -3 -68 -7 -146 -11 -79 -3 -154 -10 -169 -15 -14
-6 -29 -8 -33 -6 -4 3 -63 -4 -131 -14 -68 -10 -127 -17 -130 -15 -7 4 -304
-39 -405 -59 -193 -39 -243 -63 -353 -174 -92 -93 -132 -143 -132 -161 0 -7
-10 -22 -21 -34 -49 -51 -55 -101 -44 -347 3 -69 14 -168 25 -220 11 -52 22
-119 26 -149 4 -30 13 -66 20 -80 8 -14 14 -32 14 -39 0 -20 72 -117 111 -148
19 -16 36 -31 39 -34 3 -4 45 -28 93 -54 83 -45 92 -47 145 -42 31 3 107 10
167 16 162 16 302 38 375 60 65 19 89 23 400 61 318 38 544 120 648 234 49 54
124 191 152 279 31 99 -8 438 -72 619 -12 32 -25 60 -29 63 -5 3 -9 13 -9 23
0 70 -155 209 -268 241 -36 10 -264 14 -273 6z"/>
<path d="M23629 9968 c-12 -24 -28 -51 -37 -60 -13 -16 -13 -18 0 -18 18 0 50
35 66 73 26 62 2 66 -29 5z"/>
<path d="M21620 9109 c0 -5 5 -7 10 -4 6 3 10 8 10 11 0 2 -4 4 -10 4 -5 0
-10 -5 -10 -11z"/>
<path d="M17625 8856 c10 -15 26 -31 37 -37 10 -5 16 -14 13 -20 -4 -5 -3 -8
2 -7 4 1 29 -8 55 -20 57 -27 58 -27 58 -2 0 23 -53 54 -80 47 -12 -3 -17 0
-14 7 6 16 -24 43 -60 52 l-28 7 17 -27z"/>
<path d="M18185 8718 c-10 -10 -15 -18 -10 -18 17 0 75 24 75 31 0 13 -47 4
-65 -13z"/>
<path d="M18128 8683 c6 -2 9 -10 6 -15 -4 -7 -2 -8 5 -4 13 9 5 26 -12 25 -9
0 -8 -2 1 -6z"/>
<path d="M18095 8660 c-3 -5 -1 -10 4 -10 6 0 11 5 11 10 0 6 -2 10 -4 10 -3
0 -8 -4 -11 -10z"/>
<path d="M18150 8650 c-12 -7 -10 -9 7 -7 12 0 19 5 17 9 -6 10 -6 10 -24 -2z"/>
<path d="M18056 8635 c4 -8 10 -12 15 -9 11 6 2 24 -11 24 -5 0 -7 -7 -4 -15z"/>
<path d="M17996 8624 c-3 -8 -2 -12 4 -9 6 3 11 -6 11 -22 1 -17 3 -21 6 -10
5 20 19 22 26 5 3 -7 6 -3 6 9 1 12 -8 27 -18 33 -26 13 -28 13 -35 -6z"/>
<path d="M17449 8601 c9 -15 7 -20 -9 -24 -11 -3 -22 -1 -26 4 -7 12 -54 -20
-54 -38 0 -8 -5 -11 -12 -7 -6 4 -16 0 -23 -9 -6 -9 -24 -18 -40 -21 -31 -6
-52 -22 -42 -32 3 -3 20 -1 38 5 18 6 42 11 54 11 13 0 25 7 29 15 3 9 12 12
22 8 14 -5 15 -3 5 15 -10 19 -9 22 8 22 11 0 23 5 26 10 3 6 17 10 31 10 13
0 24 3 24 6 0 13 -22 44 -31 44 -6 0 -6 -6 0 -19z"/>
<path d="M17503 8602 c-14 -2 -20 -8 -16 -18 3 -7 -2 -17 -11 -20 -9 -3 -16
-10 -16 -15 0 -15 30 -10 36 6 4 8 12 15 19 15 14 0 28 27 17 33 -4 2 -17 1
-29 -1z"/>
<path d="M17950 8570 c0 -6 11 -10 25 -10 14 0 25 4 25 8 0 4 -11 9 -25 10
-14 1 -25 -3 -25 -8z"/>
<path d="M17880 8559 c0 -4 13 -7 29 -6 16 1 27 5 25 8 -6 10 -54 8 -54 -2z"/>
<path d="M17555 8550 c-11 -17 5 -31 19 -17 14 12 12 27 -4 27 -5 0 -12 -4
-15 -10z"/>
<path d="M17419 8504 c-11 -13 -10 -17 4 -25 9 -5 14 -16 11 -23 -3 -8 0 -17
6 -21 7 -4 10 0 8 11 -2 14 3 18 19 17 11 -1 26 4 32 11 9 11 6 15 -13 20 -13
3 -32 3 -40 0 -9 -3 -16 -2 -16 4 0 6 6 13 13 15 7 4 8 6 1 6 -6 1 -18 -6 -25
-15z"/>
<path d="M17940 8516 c0 -10 28 -13 41 -5 10 6 7 9 -13 9 -16 0 -28 -2 -28 -4z"/>
<path d="M17040 8500 c18 -12 30 -13 30 -2 0 4 -10 9 -22 9 -18 2 -20 0 -8 -7z"/>
<path d="M17202 8473 c-7 -10 -10 -12 -7 -5 4 7 -1 12 -14 12 -24 0 -24 0 -11
-34 5 -14 15 -26 21 -26 6 0 9 6 6 13 -3 7 4 19 14 25 10 7 19 17 19 22 0 16
-14 12 -28 -7z"/>
<path d="M17685 8470 c-3 -6 1 -7 9 -4 18 7 21 14 7 14 -6 0 -13 -4 -16 -10z"/>
</g>
</svg>
